<svg ed:hSpacing="30" ed:vSpacing="30" ed:name="页面-1" height="575" xmlns="http://www.w3.org/2000/svg" viewBox="0 0 1952 575" width="1952" xmlns:xlink="http://www.w3.org/1999/xlink" xmlns:ev="http://www.w3.org/2001/xml-events" xmlns:ed="https://www.edrawsoft.cn/xml/2017/SVGExtensions/" id="page300000100"><style type="text/css"><![CDATA[
g[ed\:togtopicid],g[ed\:hyperlink],g[ed\:comment],g[ed\:note] {cursor:pointer;}
g[id] {-moz-user-select: none;-ms-user-select: none;user-select: none;}
svg text::selection,svg tspan::selection{background-color: #4285f4;color: #ffffff;fill: #ffffff;}
.st2 {fill:#000000;font-family:Consolas;font-size:16pt}
.st1 {fill:#ffffff;font-family:Consolas;font-size:16pt;font-weight:bold}
]]></style><defs/><rect y="0" height="575" x="0" width="1952" fill="#ffffff"/><path ed:parentid="101" d="M-4.9,68.4L-36.4,68.4L-36.4,-68.4L-67.9,-68.4" ed:tosuperid="102" stroke-linejoin="round" stroke-linecap="round" stroke="#9ec842" fill="none" id="103" stroke-width="3" transform="matrix(1,0,0,1,1034.88,258.29)"/><path ed:parentid="102" d="M13.5,20.1L0,20.1L0,-20.1L-13.5,-20.1" ed:tosuperid="110" stroke-linejoin="round" stroke-linecap="round" stroke="#9ec842" fill="none" id="111" stroke-width="3" transform="matrix(1,0,0,1,697.5,169.85)"/><path ed:parentid="102" d="M0,0L-13.5,0" ed:tosuperid="112" stroke-linejoin="round" stroke-linecap="round" stroke="#9ec842" fill="none" id="113" stroke-width="3" transform="matrix(1,0,0,1,697.5,189.9)"/><path ed:parentid="102" d="M0,-20.1L0,20L-13.5,20" ed:tosuperid="114" stroke-linejoin="round" stroke-linecap="round" stroke="#9ec842" fill="none" id="115" stroke-width="3" transform="matrix(1,0,0,1,697.5,209.95)"/><path ed:parentid="101" d="M-4.9,5L-36.4,5L-36.4,-5L-67.9,-5" ed:tosuperid="116" stroke-linejoin="round" stroke-linecap="round" stroke="#f55151" fill="none" id="117" stroke-width="3" transform="matrix(1,0,0,1,1034.88,321.66)"/><path ed:parentid="101" d="M-4.9,-68.4L-36.4,-68.4L-36.4,68.4L-67.9,68.4" ed:tosuperid="118" stroke-linejoin="round" stroke-linecap="round" stroke="#f5c759" fill="none" id="119" stroke-width="3" transform="matrix(1,0,0,1,1034.88,395.06)"/><path ed:parentid="101" d="M4.9,51.2L36.4,51.2L36.4,-51.2L67.9,-51.2" ed:tosuperid="120" stroke-linejoin="round" stroke-linecap="round" stroke="#ff7869" fill="none" id="121" stroke-width="3" transform="matrix(1,0,0,1,1170.63,275.49)"/><path ed:parentid="101" d="M4.9,-51.2L36.4,-51.2L36.4,51.2L67.9,51.2" ed:tosuperid="122" stroke-linejoin="round" stroke-linecap="round" stroke="#63dcd2" fill="none" id="123" stroke-width="3" transform="matrix(1,0,0,1,1170.63,377.86)"/><path ed:parentid="101" d="M4.9,5.4L36.4,5.4L36.4,-5.4L67.9,-5.4" ed:tosuperid="126" stroke-linejoin="round" stroke-linecap="round" stroke="#488df5" fill="none" id="127" stroke-width="3" transform="matrix(1,0,0,1,1170.63,321.31)"/><path ed:parentid="116" d="M13.5,0L0,0L-13.5,0" ed:tosuperid="130" stroke-linejoin="round" stroke-linecap="round" stroke="#f55151" fill="none" id="131" stroke-width="3" transform="matrix(1,0,0,1,769.5,316.65)"/><path ed:parentid="130" d="M13.5,10L0,10L0,-10L-13.5,-10" ed:tosuperid="132" stroke-linejoin="round" stroke-linecap="round" stroke="#f55151" fill="none" id="133" stroke-width="3" transform="matrix(1,0,0,1,479.5,306.62)"/><path ed:parentid="130" d="M0,-10L0,10L-13.5,10" ed:tosuperid="134" stroke-linejoin="round" stroke-linecap="round" stroke="#f55151" fill="none" id="135" stroke-width="3" transform="matrix(1,0,0,1,479.5,326.67)"/><path ed:parentid="139" d="M13.5,10L0,10L0,-10L-13.5,-10" ed:tosuperid="138" stroke-linejoin="round" stroke-linecap="round" stroke="#f5c759" fill="none" id="141" stroke-width="3" transform="matrix(1,0,0,1,551.5,413.32)"/><path ed:parentid="118" d="M0,-20L0,20L-13.5,20" ed:tosuperid="140" stroke-linejoin="round" stroke-linecap="round" stroke="#f5c759" fill="none" id="142" stroke-width="3" transform="matrix(1,0,0,1,769.5,483.5)"/><path ed:parentid="118" d="M13.5,20.1L0,20.1L0,-20.1L-13.5,-20.1" ed:tosuperid="139" stroke-linejoin="round" stroke-linecap="round" stroke="#f5c759" fill="none" id="143" stroke-width="3" transform="matrix(1,0,0,1,769.5,443.4)"/><path ed:parentid="139" d="M0,-10L0,10L-13.5,10" ed:tosuperid="146" stroke-linejoin="round" stroke-linecap="round" stroke="#f5c759" fill="none" id="147" stroke-width="3" transform="matrix(1,0,0,1,551.5,433.37)"/><path ed:parentid="140" d="M0,-10L0,10L-13.5,10" ed:tosuperid="149" stroke-linejoin="round" stroke-linecap="round" stroke="#f5c759" fill="none" id="150" stroke-width="3" transform="matrix(1,0,0,1,227.5,513.58)"/><path ed:parentid="140" d="M13.5,10L0,10L0,-10L-13.5,-10" ed:tosuperid="148" stroke-linejoin="round" stroke-linecap="round" stroke="#f5c759" fill="none" id="151" stroke-width="3" transform="matrix(1,0,0,1,227.5,493.53)"/><path ed:parentid="120" d="M-13.5,0L0,0L13.5,0" ed:tosuperid="154" stroke-linejoin="round" stroke-linecap="round" stroke="#ff7869" fill="none" id="165" stroke-width="3" transform="matrix(1,0,0,1,1460.01,224.3)"/><path ed:parentid="126" d="M0,-10L0,10L13.5,10" ed:tosuperid="167" stroke-linejoin="round" stroke-linecap="round" stroke="#488df5" fill="none" id="172" stroke-width="3" transform="matrix(1,0,0,1,1448.01,325.97)"/><path ed:parentid="126" d="M-13.5,10L0,10L0,-10L13.5,-10" ed:tosuperid="166" stroke-linejoin="round" stroke-linecap="round" stroke="#488df5" fill="none" id="173" stroke-width="3" transform="matrix(1,0,0,1,1448.01,305.92)"/><path ed:parentid="122" d="M0,-13.2L0,13.2L13.5,13.2" ed:tosuperid="177" stroke-linejoin="round" stroke-linecap="round" stroke="#63dcd2" fill="none" id="182" stroke-width="3" transform="matrix(1,0,0,1,1448.01,442.27)"/><path ed:parentid="122" d="M-13.5,13.2L0,13.2L0,-13.2L13.5,-13.2" ed:tosuperid="176" stroke-linejoin="round" stroke-linecap="round" stroke="#63dcd2" fill="none" id="183" stroke-width="3" transform="matrix(1,0,0,1,1448.01,415.82)"/><g ed:width="145.512" ed:layout="map" ed:topictype="mainidea" ed:height="56.59999999999999" id="101" transform="matrix(1,0,0,1,1030,298.38)"><path d="M28.3,0L117.2,0C132.8,0,145.5,12.7,145.5,28.3C145.5,43.9,132.8,56.6,117.2,56.6L28.3,56.6C12.7,56.6,0,43.9,0,28.3C0,12.7,12.7,0,28.3,0z" stroke-linejoin="round" stroke="#3b71c8" fill="#3b71c8" stroke-width="2"/><text class="st1"><tspan y="34.9" style="white-space:pre" x="24" textLength="96">our work</tspan></text></g><g ed:parentid="101" ed:width="256" ed:layout="leftmap" ed:height="43.6" id="102" transform="matrix(1,0,0,1,711,168.1)"><path d="M4,0L252,0C254.7,0,256,1.3,256,4L256,39.6C256,42.3,254.7,43.6,252,43.6L4,43.6C1.3,43.6,0,42.3,0,39.6L0,4C0,1.3,1.3,0,4,0z" stroke-linejoin="round" stroke="#9ec842" fill="none" stroke-width="3"/><text class="st2"><tspan y="28.4" style="white-space:pre" x="15.84 27.84 39.84 51.84 63.84 75.84 87.84 99.84 111.84 123.84 135.84 147.84 159.84 171.84 183.84 195.84 207.84 219.84 " textLength="216">Data Preprocessing</tspan></text></g><g ed:parentid="102" ed:width="395" ed:layout="leftmap" ed:height="33.6" id="110" transform="matrix(1,0,0,1,289,133)"><path d="M4,0L391,0C393.7,0,395,1.3,395,4L395,29.6C395,32.3,393.7,33.6,391,33.6L4,33.6C1.3,33.6,0,32.3,0,29.6L0,4C0,1.3,1.3,0,4,0z" stroke-linejoin="round" stroke="#9ec842" fill="none" stroke-width="3"/><text class="st2"><tspan y="23.4" style="white-space:pre" x="8.64 20.64 32.64 44.64 56.64 68.64 80.64 92.64 104.64 116.64 128.64 140.64 152.64 164.64 176.64 188.64 200.64 212.64 224.64 236.64 248.64 260.64 272.64 284.64 296.64 308.64 320.64 332.64 344.64 356.64 368.64 " textLength="372">Visualization of Missing Values</tspan></text></g><g ed:parentid="102" ed:width="467" ed:layout="leftmap" ed:height="33.6" id="112" transform="matrix(1,0,0,1,217,173.1)"><path d="M4,0L463,0C465.7,0,467,1.3,467,4L467,29.6C467,32.3,465.7,33.6,463,33.6L4,33.6C1.3,33.6,0,32.3,0,29.6L0,4C0,1.3,1.3,0,4,0z" stroke-linejoin="round" stroke="#9ec842" fill="none" stroke-width="3"/><text class="st2"><tspan y="23.4" style="white-space:pre" x="8.64 20.64 32.64 44.64 56.64 68.64 80.64 92.64 104.64 116.64 128.64 140.64 152.64 164.64 176.64 188.64 200.64 212.64 224.64 236.64 248.64 260.64 272.64 284.64 296.64 308.64 320.64 332.64 344.64 356.64 368.64 380.64 392.64 404.64 416.64 428.64 440.64 " textLength="444">Random Forests Fill in Missing Values</tspan></text></g><g ed:parentid="102" ed:width="275" ed:layout="leftmap" ed:height="33.6" id="114" transform="matrix(1,0,0,1,409,213.2)"><path d="M4,0L271,0C273.7,0,275,1.3,275,4L275,29.6C275,32.3,273.7,33.6,271,33.6L4,33.6C1.3,33.6,0,32.3,0,29.6L0,4C0,1.3,1.3,0,4,0z" stroke-linejoin="round" stroke="#9ec842" fill="none" stroke-width="3"/><text class="st2"><tspan y="23.4" style="white-space:pre" x="8.64 20.64 32.64 44.64 56.64 68.64 80.64 92.64 104.64 116.64 128.64 140.64 152.64 164.64 176.64 188.64 200.64 212.64 224.64 236.64 248.64 " textLength="252">Split Data by COLPROT</tspan></text></g><g ed:parentid="101" ed:width="184" ed:layout="leftmap" ed:height="43.6" id="116" transform="matrix(1,0,0,1,783,294.85)"><path d="M4,0L180,0C182.7,0,184,1.3,184,4L184,39.6C184,42.3,182.7,43.6,180,43.6L4,43.6C1.3,43.6,0,42.3,0,39.6L0,4C0,1.3,1.3,0,4,0z" stroke-linejoin="round" stroke="#f55151" fill="none" stroke-width="3"/><text class="st2"><tspan y="28.4" style="white-space:pre" x="15.84 27.84 39.84 51.84 63.84 75.84 87.84 99.84 111.84 123.84 135.84 147.84 " textLength="144">Question One</tspan></text></g><g ed:parentid="101" ed:width="184" ed:layout="leftmap" ed:height="43.6" id="118" transform="matrix(1,0,0,1,783,441.65)"><path d="M4,0L180,0C182.7,0,184,1.3,184,4L184,39.6C184,42.3,182.7,43.6,180,43.6L4,43.6C1.3,43.6,0,42.3,0,39.6L0,4C0,1.3,1.3,0,4,0z" stroke-linejoin="round" stroke="#f5c759" fill="none" stroke-width="3"/><text class="st2"><tspan y="28.4" style="white-space:pre" x="19" textLength="144">Question Two</tspan></text></g><g ed:parentid="101" ed:width="208" ed:layout="rightmap" ed:height="43.6" id="120" transform="matrix(1,0,0,1,1238.51,202.5)"><path d="M4,0L204,0C206.7,0,208,1.3,208,4L208,39.6C208,42.3,206.7,43.6,204,43.6L4,43.6C1.3,43.6,0,42.3,0,39.6L0,4C0,1.3,1.3,0,4,0z" stroke-linejoin="round" stroke="#ff7869" fill="none" stroke-width="3"/><text class="st2"><tspan y="28.4" style="white-space:pre" x="19" textLength="168">Question Three</tspan></text></g><g ed:parentid="101" ed:width="196" ed:layout="rightmap" ed:height="43.6" id="122" transform="matrix(1,0,0,1,1238.51,407.25)"><path d="M4,0L192,0C194.7,0,196,1.3,196,4L196,39.6C196,42.3,194.7,43.6,192,43.6L4,43.6C1.3,43.6,0,42.3,0,39.6L0,4C0,1.3,1.3,0,4,0z" stroke-linejoin="round" stroke="#63dcd2" fill="none" stroke-width="3"/><text class="st2"><tspan y="28.4" style="white-space:pre" x="19" textLength="156">Question Five</tspan></text></g><g ed:parentid="101" ed:width="196" ed:layout="rightmap" ed:height="43.6" id="126" transform="matrix(1,0,0,1,1238.51,294.15)"><path d="M4,0L192,0C194.7,0,196,1.3,196,4L196,39.6C196,42.3,194.7,43.6,192,43.6L4,43.6C1.3,43.6,0,42.3,0,39.6L0,4C0,1.3,1.3,0,4,0z" stroke-linejoin="round" stroke="#488df5" fill="none" stroke-width="3"/><text class="st2"><tspan y="28.4" style="white-space:pre" x="19" textLength="156">Question Four</tspan></text></g><g ed:parentid="116" ed:width="263" ed:layout="leftmap" ed:height="33.6" id="130" transform="matrix(1,0,0,1,493,299.85)"><path d="M4,0L259,0C261.7,0,263,1.3,263,4L263,29.6C263,32.3,261.7,33.6,259,33.6L4,33.6C1.3,33.6,0,32.3,0,29.6L0,4C0,1.3,1.3,0,4,0z" stroke-linejoin="round" stroke="#f55151" fill="none" stroke-width="3"/><text class="st2"><tspan y="23.4" style="white-space:pre" x="8.64 20.64 32.64 44.64 56.64 68.64 80.64 92.64 104.64 116.64 128.64 140.64 152.64 164.64 176.64 188.64 200.64 212.64 224.64 236.64 " textLength="240">Correlation Analysis</tspan></text></g><g ed:parentid="130" ed:width="419" ed:layout="leftmap" ed:height="33.6" id="132" transform="matrix(1,0,0,1,47,279.8)"><path d="M4,0L415,0C417.7,0,419,1.3,419,4L419,29.6C419,32.3,417.7,33.6,415,33.6L4,33.6C1.3,33.6,0,32.3,0,29.6L0,4C0,1.3,1.3,0,4,0z" stroke-linejoin="round" stroke="#f55151" fill="none" stroke-width="3"/><text class="st2"><tspan y="23.4" style="white-space:pre" x="8.64 20.64 32.64 44.64 56.64 68.64 80.64 92.64 104.64 116.64 128.64 140.64 152.64 164.64 176.64 188.64 200.64 212.64 224.64 236.64 248.64 260.64 272.64 284.64 296.64 308.64 320.64 332.64 344.64 356.64 368.64 380.64 392.64 " textLength="396">Pearson's Correlation Coefficient</tspan></text></g><g ed:parentid="130" ed:width="179" ed:layout="leftmap" ed:height="33.6" id="134" transform="matrix(1,0,0,1,287,319.9)"><path d="M4,0L175,0C177.7,0,179,1.3,179,4L179,29.6C179,32.3,177.7,33.6,175,33.6L4,33.6C1.3,33.6,0,32.3,0,29.6L0,4C0,1.3,1.3,0,4,0z" stroke-linejoin="round" stroke="#f55151" fill="none" stroke-width="3"/><text class="st2"><tspan y="23.4" style="white-space:pre" x="8.64 20.64 32.64 44.64 56.64 68.64 80.64 92.64 104.64 116.64 128.64 140.64 152.64 " textLength="156">One-way ANOVA</tspan></text></g><g ed:parentid="139" ed:width="359" ed:layout="leftmap" ed:height="33.6" id="138" transform="matrix(1,0,0,1,179,386.5)"><path d="M4,0L355,0C357.7,0,359,1.3,359,4L359,29.6C359,32.3,357.7,33.6,355,33.6L4,33.6C1.3,33.6,0,32.3,0,29.6L0,4C0,1.3,1.3,0,4,0z" stroke-linejoin="round" stroke="#f5c759" fill="none" stroke-width="3"/><text class="st2"><tspan y="23.4" style="white-space:pre" x="8.64 20.64 32.64 44.64 56.64 68.64 80.64 92.64 104.64 116.64 128.64 140.64 152.64 164.64 176.64 188.64 200.64 212.64 224.64 236.64 248.64 260.64 272.64 284.64 296.64 308.64 320.64 332.64 " textLength="336">Structural Features of Brain</tspan></text></g><g ed:parentid="118" ed:width="191" ed:layout="leftmap" ed:height="33.6" id="139" transform="matrix(1,0,0,1,565,406.55)"><path d="M4,0L187,0C189.7,0,191,1.3,191,4L191,29.6C191,32.3,189.7,33.6,187,33.6L4,33.6C1.3,33.6,0,32.3,0,29.6L0,4C0,1.3,1.3,0,4,0z" stroke-linejoin="round" stroke="#f5c759" fill="none" stroke-width="3"/><text class="st2"><tspan y="23.4" style="white-space:pre" x="8.64 20.64 32.64 44.64 56.64 68.64 80.64 92.64 104.64 116.64 128.64 140.64 152.64 164.64 " textLength="168">Data Reduction</tspan></text></g><g ed:parentid="118" ed:width="515" ed:layout="leftmap" ed:height="33.6" id="140" transform="matrix(1,0,0,1,241,486.75)"><path d="M4,0L511,0C513.7,0,515,1.3,515,4L515,29.6C515,32.3,513.7,33.6,511,33.6L4,33.6C1.3,33.6,0,32.3,0,29.6L0,4C0,1.3,1.3,0,4,0z" stroke-linejoin="round" stroke="#f5c759" fill="none" stroke-width="3"/><text class="st2"><tspan y="23.4" style="white-space:pre" x="8.64 20.64 32.64 44.64 56.64 68.64 80.64 92.64 104.64 116.64 128.64 140.64 152.64 164.64 176.64 188.64 200.64 212.64 224.64 236.64 248.64 260.64 272.64 284.64 296.64 308.64 320.64 332.64 344.64 356.64 368.64 380.64 392.64 404.64 416.64 428.64 440.64 452.64 464.64 476.64 488.64 " textLength="492">Alzheimer's Disease Intelligent Diagnosis</tspan></text></g><g ed:parentid="139" ed:width="455" ed:layout="leftmap" ed:height="33.6" id="146" transform="matrix(1,0,0,1,83,426.6)"><path d="M4,0L451,0C453.7,0,455,1.3,455,4L455,29.6C455,32.3,453.7,33.6,451,33.6L4,33.6C1.3,33.6,0,32.3,0,29.6L0,4C0,1.3,1.3,0,4,0z" stroke-linejoin="round" stroke="#f5c759" fill="none" stroke-width="3"/><text class="st2"><tspan y="23.4" style="white-space:pre" x="8.64 20.64 32.64 44.64 56.64 68.64 80.64 92.64 104.64 116.64 128.64 140.64 152.64 164.64 176.64 188.64 200.64 212.64 224.64 236.64 248.64 260.64 272.64 284.64 296.64 308.64 320.64 332.64 344.64 356.64 368.64 380.64 392.64 404.64 416.64 428.64 " textLength="432">Cognitive Behavioral Characteristics</tspan></text></g><g ed:parentid="140" ed:width="131" ed:layout="leftmap" ed:height="33.6" id="148" transform="matrix(1,0,0,1,83,466.7)"><path d="M4,0L127,0C129.7,0,131,1.3,131,4L131,29.6C131,32.3,129.7,33.6,127,33.6L4,33.6C1.3,33.6,0,32.3,0,29.6L0,4C0,1.3,1.3,0,4,0z" stroke-linejoin="round" stroke="#f5c759" fill="none" stroke-width="3"/><text class="st2"><tspan y="23.4" style="white-space:pre" x="8.64 20.64 32.64 44.64 56.64 68.64 80.64 92.64 104.64 " textLength="108">SWM Model</tspan></text></g><g ed:parentid="140" ed:width="191" ed:layout="leftmap" ed:height="33.6" id="149" transform="matrix(1,0,0,1,23,506.8)"><path d="M4,0L187,0C189.7,0,191,1.3,191,4L191,29.6C191,32.3,189.7,33.6,187,33.6L4,33.6C1.3,33.6,0,32.3,0,29.6L0,4C0,1.3,1.3,0,4,0z" stroke-linejoin="round" stroke="#f5c759" fill="none" stroke-width="3"/><text class="st2"><tspan y="23.4" style="white-space:pre" x="8.64 20.64 32.64 44.64 56.64 68.64 80.64 92.64 104.64 116.64 128.64 140.64 152.64 164.64 " textLength="168">SWM Prediction</tspan></text></g><g ed:parentid="120" ed:width="299" ed:layout="rightmap" ed:height="33.6" id="154" transform="matrix(1,0,0,1,1473.51,207.5)"><path d="M4,0L295,0C297.7,0,299,1.3,299,4L299,29.6C299,32.3,297.7,33.6,295,33.6L4,33.6C1.3,33.6,0,32.3,0,29.6L0,4C0,1.3,1.3,0,4,0z" stroke-linejoin="round" stroke="#ff7869" fill="none" stroke-width="3"/><text class="st2"><tspan y="23.4" style="white-space:pre" x="8.64 20.64 32.64 44.64 56.64 68.64 80.64 92.64 104.64 116.64 128.64 140.64 152.64 164.64 176.64 188.64 200.64 212.64 224.64 236.64 248.64 260.64 272.64 " textLength="276">Hierarchical Clustering</tspan></text></g><g ed:parentid="126" ed:width="467" ed:layout="rightmap" ed:height="33.6" id="166" transform="matrix(1,0,0,1,1461.51,279.1)"><path d="M4,0L463,0C465.7,0,467,1.3,467,4L467,29.6C467,32.3,465.7,33.6,463,33.6L4,33.6C1.3,33.6,0,32.3,0,29.6L0,4C0,1.3,1.3,0,4,0z" stroke-linejoin="round" stroke="#488df5" fill="none" stroke-width="3"/><text class="st2"><tspan y="23.4" style="white-space:pre" x="8.64 20.64 32.64 44.64 56.64 68.64 80.64 92.64 104.64 116.64 128.64 140.64 152.64 164.64 176.64 188.64 200.64 212.64 224.64 236.64 248.64 260.64 272.64 284.64 296.64 308.64 320.64 332.64 344.64 356.64 368.64 380.64 392.64 404.64 416.64 428.64 440.64 " textLength="444">Quantifying Alzheimer's Disease Model</tspan></text></g><g ed:parentid="126" ed:width="263" ed:layout="rightmap" ed:height="33.6" id="167" transform="matrix(1,0,0,1,1461.51,319.2)"><path d="M4,0L259,0C261.7,0,263,1.3,263,4L263,29.6C263,32.3,261.7,33.6,259,33.6L4,33.6C1.3,33.6,0,32.3,0,29.6L0,4C0,1.3,1.3,0,4,0z" stroke-linejoin="round" stroke="#488df5" fill="none" stroke-width="3"/><text class="st2"><tspan y="23.4" style="white-space:pre" x="8.64 20.64 32.64 44.64 56.64 68.64 80.64 92.64 104.64 116.64 128.64 140.64 152.64 164.64 176.64 188.64 200.64 212.64 224.64 236.64 " textLength="240">Time Evolving Pttern</tspan></text></g><g ed:parentid="122" ed:width="239" ed:layout="rightmap" ed:height="33.6" id="176" transform="matrix(1,0,0,1,1461.51,385.8)"><path d="M4,0L235,0C237.7,0,239,1.3,239,4L239,29.6C239,32.3,237.7,33.6,235,33.6L4,33.6C1.3,33.6,0,32.3,0,29.6L0,4C0,1.3,1.3,0,4,0z" stroke-linejoin="round" stroke="#63dcd2" fill="none" stroke-width="3"/><text class="st2"><tspan y="23.4" style="white-space:pre" x="8.64 20.64 32.64 44.64 56.64 68.64 80.64 92.64 104.64 116.64 128.64 140.64 152.64 164.64 176.64 188.64 200.64 212.64 " textLength="216">Consult Literature</tspan></text></g><g ed:parentid="122" ed:width="443" ed:layout="rightmap" ed:height="59.2" id="177" transform="matrix(1,0,0,1,1461.51,425.9)"><path d="M4,0L439,0C441.7,0,443,1.3,443,4L443,55.2C443,57.9,441.7,59.2,439,59.2L4,59.2C1.3,59.2,0,57.9,0,55.2L0,4C0,1.3,1.3,0,4,0z" stroke-linejoin="round" stroke="#63dcd2" fill="none" stroke-width="3"/><text class="st2"><tspan y="23.4" style="white-space:pre" x="8.64 20.64 32.64 44.64 56.64 68.64 80.64 92.64 104.64 116.64 128.64 140.64 152.64 164.64 176.64 188.64 200.64 212.64 224.64 236.64 248.64 260.64 272.64 284.64 296.64 308.64 320.64 332.64 344.64 356.64 368.64 380.64 392.64 404.64 416.64 " textLength="420">Describe the Early Intervention and</tspan><tspan y="49" style="white-space:pre" x="10" textLength="240">Diagnostic Criteria </tspan></text></g><svg xmlns="http://www.w3.org/2000/svg" height="565.3999999999999" width="1951.512"><g style="opacity:0.15"><g transform="translate(50,50)"><rect height="32" width="32" fill="url(#paint0_linear)" transform="translate(74 160.974) rotate(-45)"/><path clip-rule="evenodd" d="M13.9044 64.465L8.60106 69.7683C7.20061 71.1688 6.18056 72.1896 5.44214 73.0594C4.70904 73.9229 4.29492 74.5913 4.07421 75.2706C3.66125 76.5415 3.66125 77.9106 4.07421 79.1816C4.29492 79.8609 4.70904 80.5292 5.44214 81.3927C6.18056 82.2626 7.20061 83.2834 8.60106 84.6838L13.9044 89.9871C15.3048 91.3876 16.3256 92.4076 17.1955 93.1461C18.059 93.8792 18.7273 94.2933 19.4066 94.514C20.6776 94.927 22.0467 94.927 23.3176 94.514C23.9969 94.2933 24.6653 93.8792 25.5288 93.1461C26.3986 92.4076 27.4194 91.3876 28.8199 89.9871L34.1232 84.6838C35.5236 83.2834 36.5437 82.2626 37.2821 81.3927C38.0152 80.5292 38.4293 79.8609 38.65 79.1816C39.063 77.9106 39.063 76.5415 38.65 75.2706C38.4293 74.5913 38.0152 73.9229 37.2821 73.0594C36.5437 72.1896 35.5236 71.1688 34.1232 69.7683L28.8199 64.465C27.4194 63.0646 26.3986 62.0445 25.5288 61.3061C24.6653 60.573 23.9969 60.1589 23.3176 59.9382C22.0467 59.5252 20.6776 59.5252 19.4066 59.9382C18.7273 60.1589 18.059 60.573 17.1955 61.3061C16.3256 62.0445 15.3048 63.0646 13.9044 64.465ZM3.4055 79.3988C3.92714 81.0043 5.31938 82.3965 8.10388 85.181L13.4072 90.4843C16.1917 93.2688 17.5839 94.6611 19.1894 95.1827C20.6015 95.6415 22.1227 95.6415 23.5349 95.1827C25.1403 94.6611 26.5326 93.2688 29.3171 90.4843L34.6204 85.181C37.4049 82.3965 38.7971 81.0043 39.3188 79.3989C39.7776 77.9867 39.7776 76.4655 39.3188 75.0533C38.7971 73.4479 37.4049 72.0556 34.6204 69.2711L29.3171 63.9678C26.5326 61.1833 25.1403 59.7911 23.5349 59.2694C22.1227 58.8106 20.6015 58.8106 19.1894 59.2694C17.5839 59.7911 16.1917 61.1833 13.4072 63.9678L8.10388 69.2711C5.31938 72.0556 3.92714 73.4479 3.4055 75.0533C2.94665 76.4655 2.94665 77.9867 3.4055 79.3988Z" fill-rule="evenodd" fill="#999999"/><path d="M21.3386 70.3014C22.1811 70.3014 22.8641 70.9844 22.8641 71.8269V82.614C22.8641 83.4566 22.1811 84.1396 21.3386 84.1396C20.4961 84.1396 19.8131 83.4566 19.8131 82.614V71.8269C19.8131 70.9844 20.4961 70.3014 21.3386 70.3014Z" fill-opacity="0.6" fill="#999999"/><path d="M14.2347 78.746L19.8133 84.3246L19.8133 82.614C19.8133 81.7715 20.4963 81.0885 21.3388 81.0885C22.1814 81.0885 22.8644 81.7715 22.8644 82.614L22.8644 86.1661C22.8644 88.2048 20.3996 89.2257 18.958 87.7842L10.7751 79.6013C9.33358 78.1597 10.3545 75.6949 12.3932 75.6949L28.443 75.6949L22.8644 70.1163L22.8644 71.8269C22.8644 72.6694 22.1814 73.3524 21.3388 73.3524C20.4963 73.3524 19.8133 72.6694 19.8133 71.8269L19.8133 68.2748C19.8133 66.2362 22.2781 65.2152 23.7197 66.6567L31.9026 74.8396C33.3441 76.2812 32.3232 78.746 30.2845 78.746L14.2347 78.746Z" fill="#999999"/><path d="M29.2731 51.5846C30.0863 53.2817 30.5636 55.3146 30.5636 56.9056C31.0055 56.9763 31.8629 57.268 32.2165 57.4271C32.1988 57.0028 32.1546 56.552 32.1016 56.0924L36.6447 60.6356L37.67 59.6103L31.527 53.4673C31.2619 52.5834 30.9348 51.7084 30.5636 50.8952L29.2731 51.5846ZM39.0489 55.7035C38.5451 56.2073 38.1208 56.3664 37.7938 56.0394C37.3518 55.5975 36.9452 54.7312 36.3884 46.8735C36.3884 46.7675 36.3795 46.6525 36.353 46.573L35.3366 46.8824L35.1333 47.1564L31.2177 51.072L32.2076 52.0619L35.1068 49.1628C35.7432 55.7565 36.2293 56.5786 36.8568 57.2061C37.6789 58.0281 38.7837 58.0016 40.1007 56.6846L41.8596 54.9257C42.9645 53.8208 42.9733 53.0342 41.1702 50.9836C40.8343 51.2311 40.3305 51.452 39.9062 51.5758C41.2586 53.0342 41.3558 53.3966 40.9227 53.8297L39.0489 55.7035ZM48.8953 45.9278L48.6302 44.7964C47.4193 45.3886 45.6073 46.5642 44.2903 47.6337L44.4936 48.7915C45.7929 47.7574 47.543 46.6437 48.7451 46.078L44.5643 50.2588L41.948 47.6425C42.3104 47.7044 42.77 47.8458 43.044 47.9784C43.4064 47.3862 43.7511 46.7409 44.0428 46.078L44.1666 46.8558C45.0681 46.2725 46.3232 45.6538 47.0834 45.3709L46.8624 44.3014C46.1465 44.5754 45.0593 45.1499 44.2108 45.698C44.3433 45.3532 44.4759 45.0085 44.582 44.655C45.6161 44.3279 46.6326 43.8418 47.5607 43.2319C47.4723 42.9491 47.3839 42.4718 47.3574 42.0917L50.0444 44.7787L48.8953 45.9278ZM40.7371 42.6132C40.9581 43.7004 40.8608 45.035 40.5515 46.1576C40.8874 46.1045 41.5326 46.078 41.8596 46.0869C41.9215 45.7952 41.9745 45.477 42.001 45.1499C42.3634 45.1411 42.7435 45.0969 43.1413 45.035C42.7789 45.8747 42.3016 46.7233 41.7889 47.4834L38.8279 44.5224L40.7371 42.6132ZM43.9191 42.3304C43.866 42.79 43.7777 43.2673 43.6009 43.7623C43.1236 43.9213 42.6551 44.0009 42.222 44.0274L43.9191 42.3304ZM47.2248 41.9591C46.5 42.4541 45.7222 42.9137 44.9532 43.2584C45.1388 42.242 45.183 41.2432 44.9886 40.3416L44.0428 40.5803L43.9279 40.7659L42.001 42.6928C41.9745 42.4541 41.9303 42.2155 41.8861 41.9945L40.8697 42.4806L44.308 39.0423L47.2248 41.9591ZM36.8745 44.5843L44.803 52.5127L45.8106 51.5051L45.4924 51.1869L50.9725 45.7068L51.2907 46.025L52.3513 44.9643L44.4229 37.0359L36.8745 44.5843ZM50.6896 38.8832C50.3979 38.5739 50.1151 38.291 49.8676 38.0435L49.5406 37.7165L50.2388 37.0182L51.3967 38.1761L50.6896 38.8832ZM48.1264 34.9057L49.3903 36.1697L48.692 36.868L47.4281 35.604L48.1264 34.9057ZM48.1882 33.2175L45.7045 35.7012L48.966 38.9628C50.2123 40.209 51.8829 41.9503 52.5988 43.5855C52.8817 43.4794 53.6153 43.3999 53.9423 43.4264C53.4739 42.2508 52.5016 40.9427 51.5205 39.8025L52.2718 39.0512L54.1456 40.925C54.2517 41.0311 54.2517 41.0841 54.1633 41.1902C54.0661 41.2874 53.8097 41.5437 53.5269 41.7912C53.8893 41.9238 54.4284 42.2155 54.7025 42.4364C55.1709 41.968 55.4803 41.6233 55.5598 41.2078C55.657 40.8101 55.4538 40.483 55.0295 40.0588L48.1882 33.2175ZM56.152 38.459L55.3477 37.6546C55.7189 37.6546 56.1785 37.6723 56.4083 37.7253C56.3995 37.0271 56.2758 36.2669 56.0725 35.4979C56.7177 35.6128 57.3099 35.7454 57.7519 35.9045L57.8756 34.7555L58.8655 35.7454L56.152 38.459ZM52.7667 35.0737C53.3943 35.1179 54.0661 35.1886 54.7201 35.277C54.9323 36.0018 55.0648 36.7177 55.0737 37.3806L52.7667 35.0737ZM57.6016 34.4815C57.0536 34.3401 56.373 34.2251 55.6482 34.1368C55.3035 33.2087 54.8527 32.2806 54.3489 31.3879L53.2794 32.0508C53.6595 32.6784 53.9865 33.3236 54.2693 33.9777C53.7125 33.9335 53.1733 33.907 52.6784 33.8893L52.5458 34.8527L51.9889 34.2959L51.0167 35.2681L56.152 40.4035L59.8378 36.7177L60.2002 37.0801L61.1636 36.1167L55.657 30.6101L54.6936 31.5735L57.6016 34.4815ZM52.4662 30.7603C51.9536 30.5659 51.1404 30.3537 50.5305 30.2035L49.9118 31.4586C50.3449 31.5912 50.8664 31.7414 51.3172 31.9094L49.3196 33.9069L50.3007 34.8881L55.33 29.8588L54.3489 28.8777L52.4662 30.7603ZM66.573 28.2501L66.3078 27.1187C65.0969 27.7109 63.285 28.8865 61.968 29.956L62.1713 31.1139C63.4706 30.0797 65.2207 28.966 66.4227 28.4004L62.242 32.5811L59.6257 29.9648C59.9881 30.0267 60.4477 30.1681 60.7217 30.3007C61.0841 29.7085 61.4288 29.0633 61.7205 28.4004L61.8442 29.1782C62.7458 28.5948 64.0009 27.9761 64.761 27.6932L64.5401 26.6238C63.8241 26.8978 62.737 27.4723 61.8884 28.0203C62.021 27.6756 62.1536 27.3309 62.2597 26.9773C63.2938 26.6503 64.3103 26.1641 65.2383 25.5543C65.15 25.2714 65.0616 24.7941 65.0351 24.414L67.7221 27.101L66.573 28.2501ZM58.4148 24.9355C58.6357 26.0227 58.5385 27.3574 58.2291 28.4799C58.565 28.4269 59.2103 28.4004 59.5373 28.4092C59.5992 28.1175 59.6522 27.7993 59.6787 27.4723C60.0411 27.4634 60.4212 27.4192 60.8189 27.3574C60.4565 28.1971 59.9792 29.0456 59.4666 29.8057L56.5056 26.8447L58.4148 24.9355ZM61.5967 24.6527C61.5437 25.1123 61.4553 25.5896 61.2785 26.0846C60.8012 26.2437 60.3328 26.3232 59.8997 26.3497L61.5967 24.6527ZM64.9025 24.2815C64.1777 24.7764 63.3999 25.2361 62.6309 25.5808C62.8165 24.5643 62.8607 23.5655 62.6662 22.664L61.7205 22.9026L61.6056 23.0882L59.6787 25.0151C59.6522 24.7764 59.608 24.5378 59.5638 24.3168L58.5473 24.803L61.9857 21.3646L64.9025 24.2815ZM54.5522 26.9066L62.4806 34.835L63.4883 33.8274L63.1701 33.5092L68.6501 28.0291L68.9683 28.3473L70.029 27.2867L62.1006 19.3582L54.5522 26.9066ZM45.9432 71.0301L47.1187 69.8545L44.3875 67.1233C43.7688 66.5046 42.7523 65.7002 42.0718 65.1434L42.1071 65.108L44.1666 66.1245L47.9319 67.8569L48.6832 67.1056L46.942 63.3491L45.9343 61.2808L45.9785 61.2366C46.5265 61.9261 47.3397 62.9337 47.9584 63.5524L50.6896 66.2836L51.8829 65.0904L45.3333 58.5408L43.8837 59.9904L45.8636 64.1446C46.1288 64.6926 46.447 65.2406 46.721 65.7975L46.6768 65.8417C46.1288 65.5588 45.5719 65.2495 45.0239 64.9843L40.8432 63.0309L39.3936 64.4805L45.9432 71.0301ZM53.3812 63.592L54.6805 62.2927L49.7307 57.343L48.4314 58.6423L53.3812 63.592ZM48.29 57.1927C48.732 56.7508 48.7585 56.1586 48.3254 55.7255C47.9011 55.3012 47.3089 55.3277 46.867 55.7697C46.4162 56.2204 46.3897 56.8127 46.8139 57.2369C47.247 57.67 47.8392 57.6435 48.29 57.1927ZM56.0656 60.9076L57.3649 59.6083L53.962 56.2053C53.962 55.4805 54.0239 55.0298 54.4305 54.6232C54.9166 54.137 55.3939 54.1901 56.1629 54.9591L59.0885 57.8847L60.3878 56.5854L57.3031 53.5006C56.0568 52.2544 54.8547 51.9715 53.7852 53.041C53.1135 53.7128 52.9632 54.5701 52.9544 55.4275L52.9278 55.454L52.1765 54.8972L51.1159 55.9578L56.0656 60.9076ZM63.593 53.6277C64.1057 53.1151 64.3178 52.3372 64.3266 51.6213L64.362 51.5859L64.9719 52.0014L66.0237 50.9495L58.9703 43.8961L57.6798 45.1866L59.4211 46.9279L60.2431 47.6615C59.5625 47.688 59.0057 47.8206 58.4488 48.3774C57.3793 49.4469 57.3616 51.4445 58.9703 53.0532C60.5966 54.6795 62.3644 54.8563 63.593 53.6277ZM62.8594 52.2223C62.2053 52.8764 61.3214 52.735 60.2961 51.7097C59.3062 50.7197 59.2443 49.7209 59.8011 49.1641C60.1105 48.8547 60.5259 48.6338 61.1005 48.6072L63.2748 50.7816C63.3544 51.4445 63.2041 51.8776 62.8594 52.2223ZM67.5224 49.4509L68.6979 48.2753L65.9667 45.5441C65.348 44.9254 64.3315 44.1211 63.6509 43.5642L63.6863 43.5289L65.7457 44.5453L69.5111 46.2777L70.2624 45.5264L68.5211 41.7699L67.5135 39.7016L67.5577 39.6574C68.1057 40.3469 68.9189 41.3545 69.5376 41.9732L72.2688 44.7044L73.4621 43.5112L66.9125 36.9616L65.4629 38.4112L67.4428 42.5654C67.708 43.1134 68.0262 43.6614 68.3002 44.2183L68.256 44.2625C67.708 43.9796 67.1511 43.6703 66.6031 43.4051L62.4223 41.4517L60.9728 42.9013L67.5224 49.4509ZM76.3039 40.9168C76.8696 40.3512 77.0817 39.5733 77.1436 38.769L77.1789 38.7336L77.7976 39.1756L78.8583 38.1149L75.968 35.2246C74.5361 33.7927 73.1396 33.6867 71.8845 34.9418C71.1066 35.7196 70.6912 36.7184 70.4702 37.6641L71.7961 38.0531C71.9905 37.3283 72.2292 36.683 72.6888 36.2234C73.2987 35.6135 73.882 35.7726 74.3947 36.2323C72.6092 38.442 72.3087 39.8562 73.3694 40.9168C74.2091 41.7565 75.42 41.8007 76.3039 40.9168ZM75.7117 39.4761C75.3316 39.8562 74.8897 39.9622 74.5008 39.5733C74.0588 39.1314 74.1295 38.3889 75.1902 37.0277L76.189 38.0265C76.1801 38.6541 76.0829 39.1049 75.7117 39.4761ZM81.7205 35.5002C83.011 34.2097 82.9933 32.8309 82.1271 31.9647C81.2078 31.0454 80.156 31.4432 79.2545 31.8498C78.5385 32.1768 77.9463 32.5039 77.5839 32.1415C77.3011 31.8586 77.3188 31.452 77.7695 31.0013C78.1319 30.6389 78.6446 30.4621 79.2545 30.3649L79.0512 28.9948C78.3352 29.0921 77.4779 29.3484 76.7619 30.0643C75.6305 31.1957 75.5421 32.5392 76.426 33.4231C77.2569 34.2539 78.3352 33.9357 79.2014 33.5468C79.9262 33.2286 80.6068 32.8839 80.978 33.2552C81.2874 33.5645 81.2785 33.9976 80.7836 34.4926C80.324 34.9522 79.7052 35.182 78.9186 35.2792L79.1396 36.6846C80.0411 36.5962 81.0576 36.1631 81.7205 35.5002ZM86.2873 30.9334C86.7204 30.5003 86.9679 30.0583 87.1447 29.7048L85.9868 28.9712C85.9073 29.1568 85.7658 29.4043 85.6067 29.5634C85.1648 30.0053 84.6698 29.9699 84.1041 29.4043L81.9121 27.2122L83.1319 25.9925L82.1066 24.9672L80.8868 26.1869L79.5521 24.8523L78.4738 25.9306L79.6582 27.4155L78.9511 28.2464L79.9145 29.2098L80.6128 28.5115L82.8048 30.7036C83.9097 31.8084 85.1118 32.1089 86.2873 30.9334ZM90.1797 27.041C90.7895 26.4312 91.205 25.5915 91.3552 24.7695L90.1178 24.4159C89.9852 24.9904 89.7554 25.4677 89.3488 25.8743C88.6152 26.6079 87.6606 26.714 86.7414 26.0069L89.7908 22.9575C89.7112 22.8072 89.4991 22.5421 89.2516 22.2946C87.8904 20.9334 86.1845 20.6417 84.8233 22.0029C83.6478 23.1785 83.5152 25.3086 85.115 26.9085C86.7502 28.5436 88.792 28.4287 90.1797 27.041ZM85.8575 25.1584C85.2388 24.3452 85.3271 23.5143 85.8486 22.9929C86.485 22.3565 87.2098 22.4802 87.8727 23.1431L85.8575 25.1584ZM93.0351 23.9381L94.3344 22.6388L91.3822 19.6866C90.9403 18.6967 91.1524 17.9719 91.5413 17.583C91.7446 17.3797 91.9126 17.2648 92.1424 17.1411L91.2408 15.7976C91.0287 15.8859 90.8254 16.0009 90.5514 16.2749C90.0387 16.7875 89.862 17.6714 90.1448 18.679L90.1183 18.7055L89.146 17.9277L88.0853 18.9884L93.0351 23.9381Z" fill="#999999"/></g><g transform="translate(537,50)"><rect height="32" width="32" fill="url(#paint0_linear)" transform="translate(74 160.974) rotate(-45)"/><path clip-rule="evenodd" d="M13.9044 64.465L8.60106 69.7683C7.20061 71.1688 6.18056 72.1896 5.44214 73.0594C4.70904 73.9229 4.29492 74.5913 4.07421 75.2706C3.66125 76.5415 3.66125 77.9106 4.07421 79.1816C4.29492 79.8609 4.70904 80.5292 5.44214 81.3927C6.18056 82.2626 7.20061 83.2834 8.60106 84.6838L13.9044 89.9871C15.3048 91.3876 16.3256 92.4076 17.1955 93.1461C18.059 93.8792 18.7273 94.2933 19.4066 94.514C20.6776 94.927 22.0467 94.927 23.3176 94.514C23.9969 94.2933 24.6653 93.8792 25.5288 93.1461C26.3986 92.4076 27.4194 91.3876 28.8199 89.9871L34.1232 84.6838C35.5236 83.2834 36.5437 82.2626 37.2821 81.3927C38.0152 80.5292 38.4293 79.8609 38.65 79.1816C39.063 77.9106 39.063 76.5415 38.65 75.2706C38.4293 74.5913 38.0152 73.9229 37.2821 73.0594C36.5437 72.1896 35.5236 71.1688 34.1232 69.7683L28.8199 64.465C27.4194 63.0646 26.3986 62.0445 25.5288 61.3061C24.6653 60.573 23.9969 60.1589 23.3176 59.9382C22.0467 59.5252 20.6776 59.5252 19.4066 59.9382C18.7273 60.1589 18.059 60.573 17.1955 61.3061C16.3256 62.0445 15.3048 63.0646 13.9044 64.465ZM3.4055 79.3988C3.92714 81.0043 5.31938 82.3965 8.10388 85.181L13.4072 90.4843C16.1917 93.2688 17.5839 94.6611 19.1894 95.1827C20.6015 95.6415 22.1227 95.6415 23.5349 95.1827C25.1403 94.6611 26.5326 93.2688 29.3171 90.4843L34.6204 85.181C37.4049 82.3965 38.7971 81.0043 39.3188 79.3989C39.7776 77.9867 39.7776 76.4655 39.3188 75.0533C38.7971 73.4479 37.4049 72.0556 34.6204 69.2711L29.3171 63.9678C26.5326 61.1833 25.1403 59.7911 23.5349 59.2694C22.1227 58.8106 20.6015 58.8106 19.1894 59.2694C17.5839 59.7911 16.1917 61.1833 13.4072 63.9678L8.10388 69.2711C5.31938 72.0556 3.92714 73.4479 3.4055 75.0533C2.94665 76.4655 2.94665 77.9867 3.4055 79.3988Z" fill-rule="evenodd" fill="#999999"/><path d="M21.3386 70.3014C22.1811 70.3014 22.8641 70.9844 22.8641 71.8269V82.614C22.8641 83.4566 22.1811 84.1396 21.3386 84.1396C20.4961 84.1396 19.8131 83.4566 19.8131 82.614V71.8269C19.8131 70.9844 20.4961 70.3014 21.3386 70.3014Z" fill-opacity="0.6" fill="#999999"/><path d="M14.2347 78.746L19.8133 84.3246L19.8133 82.614C19.8133 81.7715 20.4963 81.0885 21.3388 81.0885C22.1814 81.0885 22.8644 81.7715 22.8644 82.614L22.8644 86.1661C22.8644 88.2048 20.3996 89.2257 18.958 87.7842L10.7751 79.6013C9.33358 78.1597 10.3545 75.6949 12.3932 75.6949L28.443 75.6949L22.8644 70.1163L22.8644 71.8269C22.8644 72.6694 22.1814 73.3524 21.3388 73.3524C20.4963 73.3524 19.8133 72.6694 19.8133 71.8269L19.8133 68.2748C19.8133 66.2362 22.2781 65.2152 23.7197 66.6567L31.9026 74.8396C33.3441 76.2812 32.3232 78.746 30.2845 78.746L14.2347 78.746Z" fill="#999999"/><path d="M29.2731 51.5846C30.0863 53.2817 30.5636 55.3146 30.5636 56.9056C31.0055 56.9763 31.8629 57.268 32.2165 57.4271C32.1988 57.0028 32.1546 56.552 32.1016 56.0924L36.6447 60.6356L37.67 59.6103L31.527 53.4673C31.2619 52.5834 30.9348 51.7084 30.5636 50.8952L29.2731 51.5846ZM39.0489 55.7035C38.5451 56.2073 38.1208 56.3664 37.7938 56.0394C37.3518 55.5975 36.9452 54.7312 36.3884 46.8735C36.3884 46.7675 36.3795 46.6525 36.353 46.573L35.3366 46.8824L35.1333 47.1564L31.2177 51.072L32.2076 52.0619L35.1068 49.1628C35.7432 55.7565 36.2293 56.5786 36.8568 57.2061C37.6789 58.0281 38.7837 58.0016 40.1007 56.6846L41.8596 54.9257C42.9645 53.8208 42.9733 53.0342 41.1702 50.9836C40.8343 51.2311 40.3305 51.452 39.9062 51.5758C41.2586 53.0342 41.3558 53.3966 40.9227 53.8297L39.0489 55.7035ZM48.8953 45.9278L48.6302 44.7964C47.4193 45.3886 45.6073 46.5642 44.2903 47.6337L44.4936 48.7915C45.7929 47.7574 47.543 46.6437 48.7451 46.078L44.5643 50.2588L41.948 47.6425C42.3104 47.7044 42.77 47.8458 43.044 47.9784C43.4064 47.3862 43.7511 46.7409 44.0428 46.078L44.1666 46.8558C45.0681 46.2725 46.3232 45.6538 47.0834 45.3709L46.8624 44.3014C46.1465 44.5754 45.0593 45.1499 44.2108 45.698C44.3433 45.3532 44.4759 45.0085 44.582 44.655C45.6161 44.3279 46.6326 43.8418 47.5607 43.2319C47.4723 42.9491 47.3839 42.4718 47.3574 42.0917L50.0444 44.7787L48.8953 45.9278ZM40.7371 42.6132C40.9581 43.7004 40.8608 45.035 40.5515 46.1576C40.8874 46.1045 41.5326 46.078 41.8596 46.0869C41.9215 45.7952 41.9745 45.477 42.001 45.1499C42.3634 45.1411 42.7435 45.0969 43.1413 45.035C42.7789 45.8747 42.3016 46.7233 41.7889 47.4834L38.8279 44.5224L40.7371 42.6132ZM43.9191 42.3304C43.866 42.79 43.7777 43.2673 43.6009 43.7623C43.1236 43.9213 42.6551 44.0009 42.222 44.0274L43.9191 42.3304ZM47.2248 41.9591C46.5 42.4541 45.7222 42.9137 44.9532 43.2584C45.1388 42.242 45.183 41.2432 44.9886 40.3416L44.0428 40.5803L43.9279 40.7659L42.001 42.6928C41.9745 42.4541 41.9303 42.2155 41.8861 41.9945L40.8697 42.4806L44.308 39.0423L47.2248 41.9591ZM36.8745 44.5843L44.803 52.5127L45.8106 51.5051L45.4924 51.1869L50.9725 45.7068L51.2907 46.025L52.3513 44.9643L44.4229 37.0359L36.8745 44.5843ZM50.6896 38.8832C50.3979 38.5739 50.1151 38.291 49.8676 38.0435L49.5406 37.7165L50.2388 37.0182L51.3967 38.1761L50.6896 38.8832ZM48.1264 34.9057L49.3903 36.1697L48.692 36.868L47.4281 35.604L48.1264 34.9057ZM48.1882 33.2175L45.7045 35.7012L48.966 38.9628C50.2123 40.209 51.8829 41.9503 52.5988 43.5855C52.8817 43.4794 53.6153 43.3999 53.9423 43.4264C53.4739 42.2508 52.5016 40.9427 51.5205 39.8025L52.2718 39.0512L54.1456 40.925C54.2517 41.0311 54.2517 41.0841 54.1633 41.1902C54.0661 41.2874 53.8097 41.5437 53.5269 41.7912C53.8893 41.9238 54.4284 42.2155 54.7025 42.4364C55.1709 41.968 55.4803 41.6233 55.5598 41.2078C55.657 40.8101 55.4538 40.483 55.0295 40.0588L48.1882 33.2175ZM56.152 38.459L55.3477 37.6546C55.7189 37.6546 56.1785 37.6723 56.4083 37.7253C56.3995 37.0271 56.2758 36.2669 56.0725 35.4979C56.7177 35.6128 57.3099 35.7454 57.7519 35.9045L57.8756 34.7555L58.8655 35.7454L56.152 38.459ZM52.7667 35.0737C53.3943 35.1179 54.0661 35.1886 54.7201 35.277C54.9323 36.0018 55.0648 36.7177 55.0737 37.3806L52.7667 35.0737ZM57.6016 34.4815C57.0536 34.3401 56.373 34.2251 55.6482 34.1368C55.3035 33.2087 54.8527 32.2806 54.3489 31.3879L53.2794 32.0508C53.6595 32.6784 53.9865 33.3236 54.2693 33.9777C53.7125 33.9335 53.1733 33.907 52.6784 33.8893L52.5458 34.8527L51.9889 34.2959L51.0167 35.2681L56.152 40.4035L59.8378 36.7177L60.2002 37.0801L61.1636 36.1167L55.657 30.6101L54.6936 31.5735L57.6016 34.4815ZM52.4662 30.7603C51.9536 30.5659 51.1404 30.3537 50.5305 30.2035L49.9118 31.4586C50.3449 31.5912 50.8664 31.7414 51.3172 31.9094L49.3196 33.9069L50.3007 34.8881L55.33 29.8588L54.3489 28.8777L52.4662 30.7603ZM66.573 28.2501L66.3078 27.1187C65.0969 27.7109 63.285 28.8865 61.968 29.956L62.1713 31.1139C63.4706 30.0797 65.2207 28.966 66.4227 28.4004L62.242 32.5811L59.6257 29.9648C59.9881 30.0267 60.4477 30.1681 60.7217 30.3007C61.0841 29.7085 61.4288 29.0633 61.7205 28.4004L61.8442 29.1782C62.7458 28.5948 64.0009 27.9761 64.761 27.6932L64.5401 26.6238C63.8241 26.8978 62.737 27.4723 61.8884 28.0203C62.021 27.6756 62.1536 27.3309 62.2597 26.9773C63.2938 26.6503 64.3103 26.1641 65.2383 25.5543C65.15 25.2714 65.0616 24.7941 65.0351 24.414L67.7221 27.101L66.573 28.2501ZM58.4148 24.9355C58.6357 26.0227 58.5385 27.3574 58.2291 28.4799C58.565 28.4269 59.2103 28.4004 59.5373 28.4092C59.5992 28.1175 59.6522 27.7993 59.6787 27.4723C60.0411 27.4634 60.4212 27.4192 60.8189 27.3574C60.4565 28.1971 59.9792 29.0456 59.4666 29.8057L56.5056 26.8447L58.4148 24.9355ZM61.5967 24.6527C61.5437 25.1123 61.4553 25.5896 61.2785 26.0846C60.8012 26.2437 60.3328 26.3232 59.8997 26.3497L61.5967 24.6527ZM64.9025 24.2815C64.1777 24.7764 63.3999 25.2361 62.6309 25.5808C62.8165 24.5643 62.8607 23.5655 62.6662 22.664L61.7205 22.9026L61.6056 23.0882L59.6787 25.0151C59.6522 24.7764 59.608 24.5378 59.5638 24.3168L58.5473 24.803L61.9857 21.3646L64.9025 24.2815ZM54.5522 26.9066L62.4806 34.835L63.4883 33.8274L63.1701 33.5092L68.6501 28.0291L68.9683 28.3473L70.029 27.2867L62.1006 19.3582L54.5522 26.9066ZM45.9432 71.0301L47.1187 69.8545L44.3875 67.1233C43.7688 66.5046 42.7523 65.7002 42.0718 65.1434L42.1071 65.108L44.1666 66.1245L47.9319 67.8569L48.6832 67.1056L46.942 63.3491L45.9343 61.2808L45.9785 61.2366C46.5265 61.9261 47.3397 62.9337 47.9584 63.5524L50.6896 66.2836L51.8829 65.0904L45.3333 58.5408L43.8837 59.9904L45.8636 64.1446C46.1288 64.6926 46.447 65.2406 46.721 65.7975L46.6768 65.8417C46.1288 65.5588 45.5719 65.2495 45.0239 64.9843L40.8432 63.0309L39.3936 64.4805L45.9432 71.0301ZM53.3812 63.592L54.6805 62.2927L49.7307 57.343L48.4314 58.6423L53.3812 63.592ZM48.29 57.1927C48.732 56.7508 48.7585 56.1586 48.3254 55.7255C47.9011 55.3012 47.3089 55.3277 46.867 55.7697C46.4162 56.2204 46.3897 56.8127 46.8139 57.2369C47.247 57.67 47.8392 57.6435 48.29 57.1927ZM56.0656 60.9076L57.3649 59.6083L53.962 56.2053C53.962 55.4805 54.0239 55.0298 54.4305 54.6232C54.9166 54.137 55.3939 54.1901 56.1629 54.9591L59.0885 57.8847L60.3878 56.5854L57.3031 53.5006C56.0568 52.2544 54.8547 51.9715 53.7852 53.041C53.1135 53.7128 52.9632 54.5701 52.9544 55.4275L52.9278 55.454L52.1765 54.8972L51.1159 55.9578L56.0656 60.9076ZM63.593 53.6277C64.1057 53.1151 64.3178 52.3372 64.3266 51.6213L64.362 51.5859L64.9719 52.0014L66.0237 50.9495L58.9703 43.8961L57.6798 45.1866L59.4211 46.9279L60.2431 47.6615C59.5625 47.688 59.0057 47.8206 58.4488 48.3774C57.3793 49.4469 57.3616 51.4445 58.9703 53.0532C60.5966 54.6795 62.3644 54.8563 63.593 53.6277ZM62.8594 52.2223C62.2053 52.8764 61.3214 52.735 60.2961 51.7097C59.3062 50.7197 59.2443 49.7209 59.8011 49.1641C60.1105 48.8547 60.5259 48.6338 61.1005 48.6072L63.2748 50.7816C63.3544 51.4445 63.2041 51.8776 62.8594 52.2223ZM67.5224 49.4509L68.6979 48.2753L65.9667 45.5441C65.348 44.9254 64.3315 44.1211 63.6509 43.5642L63.6863 43.5289L65.7457 44.5453L69.5111 46.2777L70.2624 45.5264L68.5211 41.7699L67.5135 39.7016L67.5577 39.6574C68.1057 40.3469 68.9189 41.3545 69.5376 41.9732L72.2688 44.7044L73.4621 43.5112L66.9125 36.9616L65.4629 38.4112L67.4428 42.5654C67.708 43.1134 68.0262 43.6614 68.3002 44.2183L68.256 44.2625C67.708 43.9796 67.1511 43.6703 66.6031 43.4051L62.4223 41.4517L60.9728 42.9013L67.5224 49.4509ZM76.3039 40.9168C76.8696 40.3512 77.0817 39.5733 77.1436 38.769L77.1789 38.7336L77.7976 39.1756L78.8583 38.1149L75.968 35.2246C74.5361 33.7927 73.1396 33.6867 71.8845 34.9418C71.1066 35.7196 70.6912 36.7184 70.4702 37.6641L71.7961 38.0531C71.9905 37.3283 72.2292 36.683 72.6888 36.2234C73.2987 35.6135 73.882 35.7726 74.3947 36.2323C72.6092 38.442 72.3087 39.8562 73.3694 40.9168C74.2091 41.7565 75.42 41.8007 76.3039 40.9168ZM75.7117 39.4761C75.3316 39.8562 74.8897 39.9622 74.5008 39.5733C74.0588 39.1314 74.1295 38.3889 75.1902 37.0277L76.189 38.0265C76.1801 38.6541 76.0829 39.1049 75.7117 39.4761ZM81.7205 35.5002C83.011 34.2097 82.9933 32.8309 82.1271 31.9647C81.2078 31.0454 80.156 31.4432 79.2545 31.8498C78.5385 32.1768 77.9463 32.5039 77.5839 32.1415C77.3011 31.8586 77.3188 31.452 77.7695 31.0013C78.1319 30.6389 78.6446 30.4621 79.2545 30.3649L79.0512 28.9948C78.3352 29.0921 77.4779 29.3484 76.7619 30.0643C75.6305 31.1957 75.5421 32.5392 76.426 33.4231C77.2569 34.2539 78.3352 33.9357 79.2014 33.5468C79.9262 33.2286 80.6068 32.8839 80.978 33.2552C81.2874 33.5645 81.2785 33.9976 80.7836 34.4926C80.324 34.9522 79.7052 35.182 78.9186 35.2792L79.1396 36.6846C80.0411 36.5962 81.0576 36.1631 81.7205 35.5002ZM86.2873 30.9334C86.7204 30.5003 86.9679 30.0583 87.1447 29.7048L85.9868 28.9712C85.9073 29.1568 85.7658 29.4043 85.6067 29.5634C85.1648 30.0053 84.6698 29.9699 84.1041 29.4043L81.9121 27.2122L83.1319 25.9925L82.1066 24.9672L80.8868 26.1869L79.5521 24.8523L78.4738 25.9306L79.6582 27.4155L78.9511 28.2464L79.9145 29.2098L80.6128 28.5115L82.8048 30.7036C83.9097 31.8084 85.1118 32.1089 86.2873 30.9334ZM90.1797 27.041C90.7895 26.4312 91.205 25.5915 91.3552 24.7695L90.1178 24.4159C89.9852 24.9904 89.7554 25.4677 89.3488 25.8743C88.6152 26.6079 87.6606 26.714 86.7414 26.0069L89.7908 22.9575C89.7112 22.8072 89.4991 22.5421 89.2516 22.2946C87.8904 20.9334 86.1845 20.6417 84.8233 22.0029C83.6478 23.1785 83.5152 25.3086 85.115 26.9085C86.7502 28.5436 88.792 28.4287 90.1797 27.041ZM85.8575 25.1584C85.2388 24.3452 85.3271 23.5143 85.8486 22.9929C86.485 22.3565 87.2098 22.4802 87.8727 23.1431L85.8575 25.1584ZM93.0351 23.9381L94.3344 22.6388L91.3822 19.6866C90.9403 18.6967 91.1524 17.9719 91.5413 17.583C91.7446 17.3797 91.9126 17.2648 92.1424 17.1411L91.2408 15.7976C91.0287 15.8859 90.8254 16.0009 90.5514 16.2749C90.0387 16.7875 89.862 17.6714 90.1448 18.679L90.1183 18.7055L89.146 17.9277L88.0853 18.9884L93.0351 23.9381Z" fill="#999999"/></g><g transform="translate(1024,50)"><rect height="32" width="32" fill="url(#paint0_linear)" transform="translate(74 160.974) rotate(-45)"/><path clip-rule="evenodd" d="M13.9044 64.465L8.60106 69.7683C7.20061 71.1688 6.18056 72.1896 5.44214 73.0594C4.70904 73.9229 4.29492 74.5913 4.07421 75.2706C3.66125 76.5415 3.66125 77.9106 4.07421 79.1816C4.29492 79.8609 4.70904 80.5292 5.44214 81.3927C6.18056 82.2626 7.20061 83.2834 8.60106 84.6838L13.9044 89.9871C15.3048 91.3876 16.3256 92.4076 17.1955 93.1461C18.059 93.8792 18.7273 94.2933 19.4066 94.514C20.6776 94.927 22.0467 94.927 23.3176 94.514C23.9969 94.2933 24.6653 93.8792 25.5288 93.1461C26.3986 92.4076 27.4194 91.3876 28.8199 89.9871L34.1232 84.6838C35.5236 83.2834 36.5437 82.2626 37.2821 81.3927C38.0152 80.5292 38.4293 79.8609 38.65 79.1816C39.063 77.9106 39.063 76.5415 38.65 75.2706C38.4293 74.5913 38.0152 73.9229 37.2821 73.0594C36.5437 72.1896 35.5236 71.1688 34.1232 69.7683L28.8199 64.465C27.4194 63.0646 26.3986 62.0445 25.5288 61.3061C24.6653 60.573 23.9969 60.1589 23.3176 59.9382C22.0467 59.5252 20.6776 59.5252 19.4066 59.9382C18.7273 60.1589 18.059 60.573 17.1955 61.3061C16.3256 62.0445 15.3048 63.0646 13.9044 64.465ZM3.4055 79.3988C3.92714 81.0043 5.31938 82.3965 8.10388 85.181L13.4072 90.4843C16.1917 93.2688 17.5839 94.6611 19.1894 95.1827C20.6015 95.6415 22.1227 95.6415 23.5349 95.1827C25.1403 94.6611 26.5326 93.2688 29.3171 90.4843L34.6204 85.181C37.4049 82.3965 38.7971 81.0043 39.3188 79.3989C39.7776 77.9867 39.7776 76.4655 39.3188 75.0533C38.7971 73.4479 37.4049 72.0556 34.6204 69.2711L29.3171 63.9678C26.5326 61.1833 25.1403 59.7911 23.5349 59.2694C22.1227 58.8106 20.6015 58.8106 19.1894 59.2694C17.5839 59.7911 16.1917 61.1833 13.4072 63.9678L8.10388 69.2711C5.31938 72.0556 3.92714 73.4479 3.4055 75.0533C2.94665 76.4655 2.94665 77.9867 3.4055 79.3988Z" fill-rule="evenodd" fill="#999999"/><path d="M21.3386 70.3014C22.1811 70.3014 22.8641 70.9844 22.8641 71.8269V82.614C22.8641 83.4566 22.1811 84.1396 21.3386 84.1396C20.4961 84.1396 19.8131 83.4566 19.8131 82.614V71.8269C19.8131 70.9844 20.4961 70.3014 21.3386 70.3014Z" fill-opacity="0.6" fill="#999999"/><path d="M14.2347 78.746L19.8133 84.3246L19.8133 82.614C19.8133 81.7715 20.4963 81.0885 21.3388 81.0885C22.1814 81.0885 22.8644 81.7715 22.8644 82.614L22.8644 86.1661C22.8644 88.2048 20.3996 89.2257 18.958 87.7842L10.7751 79.6013C9.33358 78.1597 10.3545 75.6949 12.3932 75.6949L28.443 75.6949L22.8644 70.1163L22.8644 71.8269C22.8644 72.6694 22.1814 73.3524 21.3388 73.3524C20.4963 73.3524 19.8133 72.6694 19.8133 71.8269L19.8133 68.2748C19.8133 66.2362 22.2781 65.2152 23.7197 66.6567L31.9026 74.8396C33.3441 76.2812 32.3232 78.746 30.2845 78.746L14.2347 78.746Z" fill="#999999"/><path d="M29.2731 51.5846C30.0863 53.2817 30.5636 55.3146 30.5636 56.9056C31.0055 56.9763 31.8629 57.268 32.2165 57.4271C32.1988 57.0028 32.1546 56.552 32.1016 56.0924L36.6447 60.6356L37.67 59.6103L31.527 53.4673C31.2619 52.5834 30.9348 51.7084 30.5636 50.8952L29.2731 51.5846ZM39.0489 55.7035C38.5451 56.2073 38.1208 56.3664 37.7938 56.0394C37.3518 55.5975 36.9452 54.7312 36.3884 46.8735C36.3884 46.7675 36.3795 46.6525 36.353 46.573L35.3366 46.8824L35.1333 47.1564L31.2177 51.072L32.2076 52.0619L35.1068 49.1628C35.7432 55.7565 36.2293 56.5786 36.8568 57.2061C37.6789 58.0281 38.7837 58.0016 40.1007 56.6846L41.8596 54.9257C42.9645 53.8208 42.9733 53.0342 41.1702 50.9836C40.8343 51.2311 40.3305 51.452 39.9062 51.5758C41.2586 53.0342 41.3558 53.3966 40.9227 53.8297L39.0489 55.7035ZM48.8953 45.9278L48.6302 44.7964C47.4193 45.3886 45.6073 46.5642 44.2903 47.6337L44.4936 48.7915C45.7929 47.7574 47.543 46.6437 48.7451 46.078L44.5643 50.2588L41.948 47.6425C42.3104 47.7044 42.77 47.8458 43.044 47.9784C43.4064 47.3862 43.7511 46.7409 44.0428 46.078L44.1666 46.8558C45.0681 46.2725 46.3232 45.6538 47.0834 45.3709L46.8624 44.3014C46.1465 44.5754 45.0593 45.1499 44.2108 45.698C44.3433 45.3532 44.4759 45.0085 44.582 44.655C45.6161 44.3279 46.6326 43.8418 47.5607 43.2319C47.4723 42.9491 47.3839 42.4718 47.3574 42.0917L50.0444 44.7787L48.8953 45.9278ZM40.7371 42.6132C40.9581 43.7004 40.8608 45.035 40.5515 46.1576C40.8874 46.1045 41.5326 46.078 41.8596 46.0869C41.9215 45.7952 41.9745 45.477 42.001 45.1499C42.3634 45.1411 42.7435 45.0969 43.1413 45.035C42.7789 45.8747 42.3016 46.7233 41.7889 47.4834L38.8279 44.5224L40.7371 42.6132ZM43.9191 42.3304C43.866 42.79 43.7777 43.2673 43.6009 43.7623C43.1236 43.9213 42.6551 44.0009 42.222 44.0274L43.9191 42.3304ZM47.2248 41.9591C46.5 42.4541 45.7222 42.9137 44.9532 43.2584C45.1388 42.242 45.183 41.2432 44.9886 40.3416L44.0428 40.5803L43.9279 40.7659L42.001 42.6928C41.9745 42.4541 41.9303 42.2155 41.8861 41.9945L40.8697 42.4806L44.308 39.0423L47.2248 41.9591ZM36.8745 44.5843L44.803 52.5127L45.8106 51.5051L45.4924 51.1869L50.9725 45.7068L51.2907 46.025L52.3513 44.9643L44.4229 37.0359L36.8745 44.5843ZM50.6896 38.8832C50.3979 38.5739 50.1151 38.291 49.8676 38.0435L49.5406 37.7165L50.2388 37.0182L51.3967 38.1761L50.6896 38.8832ZM48.1264 34.9057L49.3903 36.1697L48.692 36.868L47.4281 35.604L48.1264 34.9057ZM48.1882 33.2175L45.7045 35.7012L48.966 38.9628C50.2123 40.209 51.8829 41.9503 52.5988 43.5855C52.8817 43.4794 53.6153 43.3999 53.9423 43.4264C53.4739 42.2508 52.5016 40.9427 51.5205 39.8025L52.2718 39.0512L54.1456 40.925C54.2517 41.0311 54.2517 41.0841 54.1633 41.1902C54.0661 41.2874 53.8097 41.5437 53.5269 41.7912C53.8893 41.9238 54.4284 42.2155 54.7025 42.4364C55.1709 41.968 55.4803 41.6233 55.5598 41.2078C55.657 40.8101 55.4538 40.483 55.0295 40.0588L48.1882 33.2175ZM56.152 38.459L55.3477 37.6546C55.7189 37.6546 56.1785 37.6723 56.4083 37.7253C56.3995 37.0271 56.2758 36.2669 56.0725 35.4979C56.7177 35.6128 57.3099 35.7454 57.7519 35.9045L57.8756 34.7555L58.8655 35.7454L56.152 38.459ZM52.7667 35.0737C53.3943 35.1179 54.0661 35.1886 54.7201 35.277C54.9323 36.0018 55.0648 36.7177 55.0737 37.3806L52.7667 35.0737ZM57.6016 34.4815C57.0536 34.3401 56.373 34.2251 55.6482 34.1368C55.3035 33.2087 54.8527 32.2806 54.3489 31.3879L53.2794 32.0508C53.6595 32.6784 53.9865 33.3236 54.2693 33.9777C53.7125 33.9335 53.1733 33.907 52.6784 33.8893L52.5458 34.8527L51.9889 34.2959L51.0167 35.2681L56.152 40.4035L59.8378 36.7177L60.2002 37.0801L61.1636 36.1167L55.657 30.6101L54.6936 31.5735L57.6016 34.4815ZM52.4662 30.7603C51.9536 30.5659 51.1404 30.3537 50.5305 30.2035L49.9118 31.4586C50.3449 31.5912 50.8664 31.7414 51.3172 31.9094L49.3196 33.9069L50.3007 34.8881L55.33 29.8588L54.3489 28.8777L52.4662 30.7603ZM66.573 28.2501L66.3078 27.1187C65.0969 27.7109 63.285 28.8865 61.968 29.956L62.1713 31.1139C63.4706 30.0797 65.2207 28.966 66.4227 28.4004L62.242 32.5811L59.6257 29.9648C59.9881 30.0267 60.4477 30.1681 60.7217 30.3007C61.0841 29.7085 61.4288 29.0633 61.7205 28.4004L61.8442 29.1782C62.7458 28.5948 64.0009 27.9761 64.761 27.6932L64.5401 26.6238C63.8241 26.8978 62.737 27.4723 61.8884 28.0203C62.021 27.6756 62.1536 27.3309 62.2597 26.9773C63.2938 26.6503 64.3103 26.1641 65.2383 25.5543C65.15 25.2714 65.0616 24.7941 65.0351 24.414L67.7221 27.101L66.573 28.2501ZM58.4148 24.9355C58.6357 26.0227 58.5385 27.3574 58.2291 28.4799C58.565 28.4269 59.2103 28.4004 59.5373 28.4092C59.5992 28.1175 59.6522 27.7993 59.6787 27.4723C60.0411 27.4634 60.4212 27.4192 60.8189 27.3574C60.4565 28.1971 59.9792 29.0456 59.4666 29.8057L56.5056 26.8447L58.4148 24.9355ZM61.5967 24.6527C61.5437 25.1123 61.4553 25.5896 61.2785 26.0846C60.8012 26.2437 60.3328 26.3232 59.8997 26.3497L61.5967 24.6527ZM64.9025 24.2815C64.1777 24.7764 63.3999 25.2361 62.6309 25.5808C62.8165 24.5643 62.8607 23.5655 62.6662 22.664L61.7205 22.9026L61.6056 23.0882L59.6787 25.0151C59.6522 24.7764 59.608 24.5378 59.5638 24.3168L58.5473 24.803L61.9857 21.3646L64.9025 24.2815ZM54.5522 26.9066L62.4806 34.835L63.4883 33.8274L63.1701 33.5092L68.6501 28.0291L68.9683 28.3473L70.029 27.2867L62.1006 19.3582L54.5522 26.9066ZM45.9432 71.0301L47.1187 69.8545L44.3875 67.1233C43.7688 66.5046 42.7523 65.7002 42.0718 65.1434L42.1071 65.108L44.1666 66.1245L47.9319 67.8569L48.6832 67.1056L46.942 63.3491L45.9343 61.2808L45.9785 61.2366C46.5265 61.9261 47.3397 62.9337 47.9584 63.5524L50.6896 66.2836L51.8829 65.0904L45.3333 58.5408L43.8837 59.9904L45.8636 64.1446C46.1288 64.6926 46.447 65.2406 46.721 65.7975L46.6768 65.8417C46.1288 65.5588 45.5719 65.2495 45.0239 64.9843L40.8432 63.0309L39.3936 64.4805L45.9432 71.0301ZM53.3812 63.592L54.6805 62.2927L49.7307 57.343L48.4314 58.6423L53.3812 63.592ZM48.29 57.1927C48.732 56.7508 48.7585 56.1586 48.3254 55.7255C47.9011 55.3012 47.3089 55.3277 46.867 55.7697C46.4162 56.2204 46.3897 56.8127 46.8139 57.2369C47.247 57.67 47.8392 57.6435 48.29 57.1927ZM56.0656 60.9076L57.3649 59.6083L53.962 56.2053C53.962 55.4805 54.0239 55.0298 54.4305 54.6232C54.9166 54.137 55.3939 54.1901 56.1629 54.9591L59.0885 57.8847L60.3878 56.5854L57.3031 53.5006C56.0568 52.2544 54.8547 51.9715 53.7852 53.041C53.1135 53.7128 52.9632 54.5701 52.9544 55.4275L52.9278 55.454L52.1765 54.8972L51.1159 55.9578L56.0656 60.9076ZM63.593 53.6277C64.1057 53.1151 64.3178 52.3372 64.3266 51.6213L64.362 51.5859L64.9719 52.0014L66.0237 50.9495L58.9703 43.8961L57.6798 45.1866L59.4211 46.9279L60.2431 47.6615C59.5625 47.688 59.0057 47.8206 58.4488 48.3774C57.3793 49.4469 57.3616 51.4445 58.9703 53.0532C60.5966 54.6795 62.3644 54.8563 63.593 53.6277ZM62.8594 52.2223C62.2053 52.8764 61.3214 52.735 60.2961 51.7097C59.3062 50.7197 59.2443 49.7209 59.8011 49.1641C60.1105 48.8547 60.5259 48.6338 61.1005 48.6072L63.2748 50.7816C63.3544 51.4445 63.2041 51.8776 62.8594 52.2223ZM67.5224 49.4509L68.6979 48.2753L65.9667 45.5441C65.348 44.9254 64.3315 44.1211 63.6509 43.5642L63.6863 43.5289L65.7457 44.5453L69.5111 46.2777L70.2624 45.5264L68.5211 41.7699L67.5135 39.7016L67.5577 39.6574C68.1057 40.3469 68.9189 41.3545 69.5376 41.9732L72.2688 44.7044L73.4621 43.5112L66.9125 36.9616L65.4629 38.4112L67.4428 42.5654C67.708 43.1134 68.0262 43.6614 68.3002 44.2183L68.256 44.2625C67.708 43.9796 67.1511 43.6703 66.6031 43.4051L62.4223 41.4517L60.9728 42.9013L67.5224 49.4509ZM76.3039 40.9168C76.8696 40.3512 77.0817 39.5733 77.1436 38.769L77.1789 38.7336L77.7976 39.1756L78.8583 38.1149L75.968 35.2246C74.5361 33.7927 73.1396 33.6867 71.8845 34.9418C71.1066 35.7196 70.6912 36.7184 70.4702 37.6641L71.7961 38.0531C71.9905 37.3283 72.2292 36.683 72.6888 36.2234C73.2987 35.6135 73.882 35.7726 74.3947 36.2323C72.6092 38.442 72.3087 39.8562 73.3694 40.9168C74.2091 41.7565 75.42 41.8007 76.3039 40.9168ZM75.7117 39.4761C75.3316 39.8562 74.8897 39.9622 74.5008 39.5733C74.0588 39.1314 74.1295 38.3889 75.1902 37.0277L76.189 38.0265C76.1801 38.6541 76.0829 39.1049 75.7117 39.4761ZM81.7205 35.5002C83.011 34.2097 82.9933 32.8309 82.1271 31.9647C81.2078 31.0454 80.156 31.4432 79.2545 31.8498C78.5385 32.1768 77.9463 32.5039 77.5839 32.1415C77.3011 31.8586 77.3188 31.452 77.7695 31.0013C78.1319 30.6389 78.6446 30.4621 79.2545 30.3649L79.0512 28.9948C78.3352 29.0921 77.4779 29.3484 76.7619 30.0643C75.6305 31.1957 75.5421 32.5392 76.426 33.4231C77.2569 34.2539 78.3352 33.9357 79.2014 33.5468C79.9262 33.2286 80.6068 32.8839 80.978 33.2552C81.2874 33.5645 81.2785 33.9976 80.7836 34.4926C80.324 34.9522 79.7052 35.182 78.9186 35.2792L79.1396 36.6846C80.0411 36.5962 81.0576 36.1631 81.7205 35.5002ZM86.2873 30.9334C86.7204 30.5003 86.9679 30.0583 87.1447 29.7048L85.9868 28.9712C85.9073 29.1568 85.7658 29.4043 85.6067 29.5634C85.1648 30.0053 84.6698 29.9699 84.1041 29.4043L81.9121 27.2122L83.1319 25.9925L82.1066 24.9672L80.8868 26.1869L79.5521 24.8523L78.4738 25.9306L79.6582 27.4155L78.9511 28.2464L79.9145 29.2098L80.6128 28.5115L82.8048 30.7036C83.9097 31.8084 85.1118 32.1089 86.2873 30.9334ZM90.1797 27.041C90.7895 26.4312 91.205 25.5915 91.3552 24.7695L90.1178 24.4159C89.9852 24.9904 89.7554 25.4677 89.3488 25.8743C88.6152 26.6079 87.6606 26.714 86.7414 26.0069L89.7908 22.9575C89.7112 22.8072 89.4991 22.5421 89.2516 22.2946C87.8904 20.9334 86.1845 20.6417 84.8233 22.0029C83.6478 23.1785 83.5152 25.3086 85.115 26.9085C86.7502 28.5436 88.792 28.4287 90.1797 27.041ZM85.8575 25.1584C85.2388 24.3452 85.3271 23.5143 85.8486 22.9929C86.485 22.3565 87.2098 22.4802 87.8727 23.1431L85.8575 25.1584ZM93.0351 23.9381L94.3344 22.6388L91.3822 19.6866C90.9403 18.6967 91.1524 17.9719 91.5413 17.583C91.7446 17.3797 91.9126 17.2648 92.1424 17.1411L91.2408 15.7976C91.0287 15.8859 90.8254 16.0009 90.5514 16.2749C90.0387 16.7875 89.862 17.6714 90.1448 18.679L90.1183 18.7055L89.146 17.9277L88.0853 18.9884L93.0351 23.9381Z" fill="#999999"/></g><g transform="translate(1511,50)"><rect height="32" width="32" fill="url(#paint0_linear)" transform="translate(74 160.974) rotate(-45)"/><path clip-rule="evenodd" d="M13.9044 64.465L8.60106 69.7683C7.20061 71.1688 6.18056 72.1896 5.44214 73.0594C4.70904 73.9229 4.29492 74.5913 4.07421 75.2706C3.66125 76.5415 3.66125 77.9106 4.07421 79.1816C4.29492 79.8609 4.70904 80.5292 5.44214 81.3927C6.18056 82.2626 7.20061 83.2834 8.60106 84.6838L13.9044 89.9871C15.3048 91.3876 16.3256 92.4076 17.1955 93.1461C18.059 93.8792 18.7273 94.2933 19.4066 94.514C20.6776 94.927 22.0467 94.927 23.3176 94.514C23.9969 94.2933 24.6653 93.8792 25.5288 93.1461C26.3986 92.4076 27.4194 91.3876 28.8199 89.9871L34.1232 84.6838C35.5236 83.2834 36.5437 82.2626 37.2821 81.3927C38.0152 80.5292 38.4293 79.8609 38.65 79.1816C39.063 77.9106 39.063 76.5415 38.65 75.2706C38.4293 74.5913 38.0152 73.9229 37.2821 73.0594C36.5437 72.1896 35.5236 71.1688 34.1232 69.7683L28.8199 64.465C27.4194 63.0646 26.3986 62.0445 25.5288 61.3061C24.6653 60.573 23.9969 60.1589 23.3176 59.9382C22.0467 59.5252 20.6776 59.5252 19.4066 59.9382C18.7273 60.1589 18.059 60.573 17.1955 61.3061C16.3256 62.0445 15.3048 63.0646 13.9044 64.465ZM3.4055 79.3988C3.92714 81.0043 5.31938 82.3965 8.10388 85.181L13.4072 90.4843C16.1917 93.2688 17.5839 94.6611 19.1894 95.1827C20.6015 95.6415 22.1227 95.6415 23.5349 95.1827C25.1403 94.6611 26.5326 93.2688 29.3171 90.4843L34.6204 85.181C37.4049 82.3965 38.7971 81.0043 39.3188 79.3989C39.7776 77.9867 39.7776 76.4655 39.3188 75.0533C38.7971 73.4479 37.4049 72.0556 34.6204 69.2711L29.3171 63.9678C26.5326 61.1833 25.1403 59.7911 23.5349 59.2694C22.1227 58.8106 20.6015 58.8106 19.1894 59.2694C17.5839 59.7911 16.1917 61.1833 13.4072 63.9678L8.10388 69.2711C5.31938 72.0556 3.92714 73.4479 3.4055 75.0533C2.94665 76.4655 2.94665 77.9867 3.4055 79.3988Z" fill-rule="evenodd" fill="#999999"/><path d="M21.3386 70.3014C22.1811 70.3014 22.8641 70.9844 22.8641 71.8269V82.614C22.8641 83.4566 22.1811 84.1396 21.3386 84.1396C20.4961 84.1396 19.8131 83.4566 19.8131 82.614V71.8269C19.8131 70.9844 20.4961 70.3014 21.3386 70.3014Z" fill-opacity="0.6" fill="#999999"/><path d="M14.2347 78.746L19.8133 84.3246L19.8133 82.614C19.8133 81.7715 20.4963 81.0885 21.3388 81.0885C22.1814 81.0885 22.8644 81.7715 22.8644 82.614L22.8644 86.1661C22.8644 88.2048 20.3996 89.2257 18.958 87.7842L10.7751 79.6013C9.33358 78.1597 10.3545 75.6949 12.3932 75.6949L28.443 75.6949L22.8644 70.1163L22.8644 71.8269C22.8644 72.6694 22.1814 73.3524 21.3388 73.3524C20.4963 73.3524 19.8133 72.6694 19.8133 71.8269L19.8133 68.2748C19.8133 66.2362 22.2781 65.2152 23.7197 66.6567L31.9026 74.8396C33.3441 76.2812 32.3232 78.746 30.2845 78.746L14.2347 78.746Z" fill="#999999"/><path d="M29.2731 51.5846C30.0863 53.2817 30.5636 55.3146 30.5636 56.9056C31.0055 56.9763 31.8629 57.268 32.2165 57.4271C32.1988 57.0028 32.1546 56.552 32.1016 56.0924L36.6447 60.6356L37.67 59.6103L31.527 53.4673C31.2619 52.5834 30.9348 51.7084 30.5636 50.8952L29.2731 51.5846ZM39.0489 55.7035C38.5451 56.2073 38.1208 56.3664 37.7938 56.0394C37.3518 55.5975 36.9452 54.7312 36.3884 46.8735C36.3884 46.7675 36.3795 46.6525 36.353 46.573L35.3366 46.8824L35.1333 47.1564L31.2177 51.072L32.2076 52.0619L35.1068 49.1628C35.7432 55.7565 36.2293 56.5786 36.8568 57.2061C37.6789 58.0281 38.7837 58.0016 40.1007 56.6846L41.8596 54.9257C42.9645 53.8208 42.9733 53.0342 41.1702 50.9836C40.8343 51.2311 40.3305 51.452 39.9062 51.5758C41.2586 53.0342 41.3558 53.3966 40.9227 53.8297L39.0489 55.7035ZM48.8953 45.9278L48.6302 44.7964C47.4193 45.3886 45.6073 46.5642 44.2903 47.6337L44.4936 48.7915C45.7929 47.7574 47.543 46.6437 48.7451 46.078L44.5643 50.2588L41.948 47.6425C42.3104 47.7044 42.77 47.8458 43.044 47.9784C43.4064 47.3862 43.7511 46.7409 44.0428 46.078L44.1666 46.8558C45.0681 46.2725 46.3232 45.6538 47.0834 45.3709L46.8624 44.3014C46.1465 44.5754 45.0593 45.1499 44.2108 45.698C44.3433 45.3532 44.4759 45.0085 44.582 44.655C45.6161 44.3279 46.6326 43.8418 47.5607 43.2319C47.4723 42.9491 47.3839 42.4718 47.3574 42.0917L50.0444 44.7787L48.8953 45.9278ZM40.7371 42.6132C40.9581 43.7004 40.8608 45.035 40.5515 46.1576C40.8874 46.1045 41.5326 46.078 41.8596 46.0869C41.9215 45.7952 41.9745 45.477 42.001 45.1499C42.3634 45.1411 42.7435 45.0969 43.1413 45.035C42.7789 45.8747 42.3016 46.7233 41.7889 47.4834L38.8279 44.5224L40.7371 42.6132ZM43.9191 42.3304C43.866 42.79 43.7777 43.2673 43.6009 43.7623C43.1236 43.9213 42.6551 44.0009 42.222 44.0274L43.9191 42.3304ZM47.2248 41.9591C46.5 42.4541 45.7222 42.9137 44.9532 43.2584C45.1388 42.242 45.183 41.2432 44.9886 40.3416L44.0428 40.5803L43.9279 40.7659L42.001 42.6928C41.9745 42.4541 41.9303 42.2155 41.8861 41.9945L40.8697 42.4806L44.308 39.0423L47.2248 41.9591ZM36.8745 44.5843L44.803 52.5127L45.8106 51.5051L45.4924 51.1869L50.9725 45.7068L51.2907 46.025L52.3513 44.9643L44.4229 37.0359L36.8745 44.5843ZM50.6896 38.8832C50.3979 38.5739 50.1151 38.291 49.8676 38.0435L49.5406 37.7165L50.2388 37.0182L51.3967 38.1761L50.6896 38.8832ZM48.1264 34.9057L49.3903 36.1697L48.692 36.868L47.4281 35.604L48.1264 34.9057ZM48.1882 33.2175L45.7045 35.7012L48.966 38.9628C50.2123 40.209 51.8829 41.9503 52.5988 43.5855C52.8817 43.4794 53.6153 43.3999 53.9423 43.4264C53.4739 42.2508 52.5016 40.9427 51.5205 39.8025L52.2718 39.0512L54.1456 40.925C54.2517 41.0311 54.2517 41.0841 54.1633 41.1902C54.0661 41.2874 53.8097 41.5437 53.5269 41.7912C53.8893 41.9238 54.4284 42.2155 54.7025 42.4364C55.1709 41.968 55.4803 41.6233 55.5598 41.2078C55.657 40.8101 55.4538 40.483 55.0295 40.0588L48.1882 33.2175ZM56.152 38.459L55.3477 37.6546C55.7189 37.6546 56.1785 37.6723 56.4083 37.7253C56.3995 37.0271 56.2758 36.2669 56.0725 35.4979C56.7177 35.6128 57.3099 35.7454 57.7519 35.9045L57.8756 34.7555L58.8655 35.7454L56.152 38.459ZM52.7667 35.0737C53.3943 35.1179 54.0661 35.1886 54.7201 35.277C54.9323 36.0018 55.0648 36.7177 55.0737 37.3806L52.7667 35.0737ZM57.6016 34.4815C57.0536 34.3401 56.373 34.2251 55.6482 34.1368C55.3035 33.2087 54.8527 32.2806 54.3489 31.3879L53.2794 32.0508C53.6595 32.6784 53.9865 33.3236 54.2693 33.9777C53.7125 33.9335 53.1733 33.907 52.6784 33.8893L52.5458 34.8527L51.9889 34.2959L51.0167 35.2681L56.152 40.4035L59.8378 36.7177L60.2002 37.0801L61.1636 36.1167L55.657 30.6101L54.6936 31.5735L57.6016 34.4815ZM52.4662 30.7603C51.9536 30.5659 51.1404 30.3537 50.5305 30.2035L49.9118 31.4586C50.3449 31.5912 50.8664 31.7414 51.3172 31.9094L49.3196 33.9069L50.3007 34.8881L55.33 29.8588L54.3489 28.8777L52.4662 30.7603ZM66.573 28.2501L66.3078 27.1187C65.0969 27.7109 63.285 28.8865 61.968 29.956L62.1713 31.1139C63.4706 30.0797 65.2207 28.966 66.4227 28.4004L62.242 32.5811L59.6257 29.9648C59.9881 30.0267 60.4477 30.1681 60.7217 30.3007C61.0841 29.7085 61.4288 29.0633 61.7205 28.4004L61.8442 29.1782C62.7458 28.5948 64.0009 27.9761 64.761 27.6932L64.5401 26.6238C63.8241 26.8978 62.737 27.4723 61.8884 28.0203C62.021 27.6756 62.1536 27.3309 62.2597 26.9773C63.2938 26.6503 64.3103 26.1641 65.2383 25.5543C65.15 25.2714 65.0616 24.7941 65.0351 24.414L67.7221 27.101L66.573 28.2501ZM58.4148 24.9355C58.6357 26.0227 58.5385 27.3574 58.2291 28.4799C58.565 28.4269 59.2103 28.4004 59.5373 28.4092C59.5992 28.1175 59.6522 27.7993 59.6787 27.4723C60.0411 27.4634 60.4212 27.4192 60.8189 27.3574C60.4565 28.1971 59.9792 29.0456 59.4666 29.8057L56.5056 26.8447L58.4148 24.9355ZM61.5967 24.6527C61.5437 25.1123 61.4553 25.5896 61.2785 26.0846C60.8012 26.2437 60.3328 26.3232 59.8997 26.3497L61.5967 24.6527ZM64.9025 24.2815C64.1777 24.7764 63.3999 25.2361 62.6309 25.5808C62.8165 24.5643 62.8607 23.5655 62.6662 22.664L61.7205 22.9026L61.6056 23.0882L59.6787 25.0151C59.6522 24.7764 59.608 24.5378 59.5638 24.3168L58.5473 24.803L61.9857 21.3646L64.9025 24.2815ZM54.5522 26.9066L62.4806 34.835L63.4883 33.8274L63.1701 33.5092L68.6501 28.0291L68.9683 28.3473L70.029 27.2867L62.1006 19.3582L54.5522 26.9066ZM45.9432 71.0301L47.1187 69.8545L44.3875 67.1233C43.7688 66.5046 42.7523 65.7002 42.0718 65.1434L42.1071 65.108L44.1666 66.1245L47.9319 67.8569L48.6832 67.1056L46.942 63.3491L45.9343 61.2808L45.9785 61.2366C46.5265 61.9261 47.3397 62.9337 47.9584 63.5524L50.6896 66.2836L51.8829 65.0904L45.3333 58.5408L43.8837 59.9904L45.8636 64.1446C46.1288 64.6926 46.447 65.2406 46.721 65.7975L46.6768 65.8417C46.1288 65.5588 45.5719 65.2495 45.0239 64.9843L40.8432 63.0309L39.3936 64.4805L45.9432 71.0301ZM53.3812 63.592L54.6805 62.2927L49.7307 57.343L48.4314 58.6423L53.3812 63.592ZM48.29 57.1927C48.732 56.7508 48.7585 56.1586 48.3254 55.7255C47.9011 55.3012 47.3089 55.3277 46.867 55.7697C46.4162 56.2204 46.3897 56.8127 46.8139 57.2369C47.247 57.67 47.8392 57.6435 48.29 57.1927ZM56.0656 60.9076L57.3649 59.6083L53.962 56.2053C53.962 55.4805 54.0239 55.0298 54.4305 54.6232C54.9166 54.137 55.3939 54.1901 56.1629 54.9591L59.0885 57.8847L60.3878 56.5854L57.3031 53.5006C56.0568 52.2544 54.8547 51.9715 53.7852 53.041C53.1135 53.7128 52.9632 54.5701 52.9544 55.4275L52.9278 55.454L52.1765 54.8972L51.1159 55.9578L56.0656 60.9076ZM63.593 53.6277C64.1057 53.1151 64.3178 52.3372 64.3266 51.6213L64.362 51.5859L64.9719 52.0014L66.0237 50.9495L58.9703 43.8961L57.6798 45.1866L59.4211 46.9279L60.2431 47.6615C59.5625 47.688 59.0057 47.8206 58.4488 48.3774C57.3793 49.4469 57.3616 51.4445 58.9703 53.0532C60.5966 54.6795 62.3644 54.8563 63.593 53.6277ZM62.8594 52.2223C62.2053 52.8764 61.3214 52.735 60.2961 51.7097C59.3062 50.7197 59.2443 49.7209 59.8011 49.1641C60.1105 48.8547 60.5259 48.6338 61.1005 48.6072L63.2748 50.7816C63.3544 51.4445 63.2041 51.8776 62.8594 52.2223ZM67.5224 49.4509L68.6979 48.2753L65.9667 45.5441C65.348 44.9254 64.3315 44.1211 63.6509 43.5642L63.6863 43.5289L65.7457 44.5453L69.5111 46.2777L70.2624 45.5264L68.5211 41.7699L67.5135 39.7016L67.5577 39.6574C68.1057 40.3469 68.9189 41.3545 69.5376 41.9732L72.2688 44.7044L73.4621 43.5112L66.9125 36.9616L65.4629 38.4112L67.4428 42.5654C67.708 43.1134 68.0262 43.6614 68.3002 44.2183L68.256 44.2625C67.708 43.9796 67.1511 43.6703 66.6031 43.4051L62.4223 41.4517L60.9728 42.9013L67.5224 49.4509ZM76.3039 40.9168C76.8696 40.3512 77.0817 39.5733 77.1436 38.769L77.1789 38.7336L77.7976 39.1756L78.8583 38.1149L75.968 35.2246C74.5361 33.7927 73.1396 33.6867 71.8845 34.9418C71.1066 35.7196 70.6912 36.7184 70.4702 37.6641L71.7961 38.0531C71.9905 37.3283 72.2292 36.683 72.6888 36.2234C73.2987 35.6135 73.882 35.7726 74.3947 36.2323C72.6092 38.442 72.3087 39.8562 73.3694 40.9168C74.2091 41.7565 75.42 41.8007 76.3039 40.9168ZM75.7117 39.4761C75.3316 39.8562 74.8897 39.9622 74.5008 39.5733C74.0588 39.1314 74.1295 38.3889 75.1902 37.0277L76.189 38.0265C76.1801 38.6541 76.0829 39.1049 75.7117 39.4761ZM81.7205 35.5002C83.011 34.2097 82.9933 32.8309 82.1271 31.9647C81.2078 31.0454 80.156 31.4432 79.2545 31.8498C78.5385 32.1768 77.9463 32.5039 77.5839 32.1415C77.3011 31.8586 77.3188 31.452 77.7695 31.0013C78.1319 30.6389 78.6446 30.4621 79.2545 30.3649L79.0512 28.9948C78.3352 29.0921 77.4779 29.3484 76.7619 30.0643C75.6305 31.1957 75.5421 32.5392 76.426 33.4231C77.2569 34.2539 78.3352 33.9357 79.2014 33.5468C79.9262 33.2286 80.6068 32.8839 80.978 33.2552C81.2874 33.5645 81.2785 33.9976 80.7836 34.4926C80.324 34.9522 79.7052 35.182 78.9186 35.2792L79.1396 36.6846C80.0411 36.5962 81.0576 36.1631 81.7205 35.5002ZM86.2873 30.9334C86.7204 30.5003 86.9679 30.0583 87.1447 29.7048L85.9868 28.9712C85.9073 29.1568 85.7658 29.4043 85.6067 29.5634C85.1648 30.0053 84.6698 29.9699 84.1041 29.4043L81.9121 27.2122L83.1319 25.9925L82.1066 24.9672L80.8868 26.1869L79.5521 24.8523L78.4738 25.9306L79.6582 27.4155L78.9511 28.2464L79.9145 29.2098L80.6128 28.5115L82.8048 30.7036C83.9097 31.8084 85.1118 32.1089 86.2873 30.9334ZM90.1797 27.041C90.7895 26.4312 91.205 25.5915 91.3552 24.7695L90.1178 24.4159C89.9852 24.9904 89.7554 25.4677 89.3488 25.8743C88.6152 26.6079 87.6606 26.714 86.7414 26.0069L89.7908 22.9575C89.7112 22.8072 89.4991 22.5421 89.2516 22.2946C87.8904 20.9334 86.1845 20.6417 84.8233 22.0029C83.6478 23.1785 83.5152 25.3086 85.115 26.9085C86.7502 28.5436 88.792 28.4287 90.1797 27.041ZM85.8575 25.1584C85.2388 24.3452 85.3271 23.5143 85.8486 22.9929C86.485 22.3565 87.2098 22.4802 87.8727 23.1431L85.8575 25.1584ZM93.0351 23.9381L94.3344 22.6388L91.3822 19.6866C90.9403 18.6967 91.1524 17.9719 91.5413 17.583C91.7446 17.3797 91.9126 17.2648 92.1424 17.1411L91.2408 15.7976C91.0287 15.8859 90.8254 16.0009 90.5514 16.2749C90.0387 16.7875 89.862 17.6714 90.1448 18.679L90.1183 18.7055L89.146 17.9277L88.0853 18.9884L93.0351 23.9381Z" fill="#999999"/></g></g><g height="112" width="389.5652173913044" style="transform-origin: 0% 0%;" transform="translate(1561.95,0), scale(1.21739)"><path d="M0 0H320V91.4286H29.44C19.0265 91.4286 13.8197 91.4286 9.85647 89.3698C6.51671 87.635 3.79359 84.9119 2.05873 81.5721C0 77.6089 0 72.4021 0 61.9886V0Z" fill="#14AF78"/><g clip-path="url(#clip2)"><g clip-path="url(#clip3)"><rect height="48" width="48" fill="url(#paint1_linear)" transform="translate(63 22)"/></g></g><path d="M96.709 37.016C97.7984 38.1054 97.7984 39.8716 96.709 40.961L82.7613 54.9087C81.6719 55.9981 79.9057 55.9981 78.8163 54.9087C77.7269 53.8193 77.7269 52.0531 78.8163 50.9637L92.764 37.016C93.8534 35.9266 95.6196 35.9266 96.709 37.016Z" fill-opacity="0.6" fill="white"/><path d="M76.6045 38.7492V53.1755L78.8163 50.9637C79.9057 49.8743 81.6719 49.8743 82.7613 50.9637C83.8507 52.0531 83.8507 53.8193 82.7613 54.9087L78.1685 59.5015C75.5325 62.1375 71.0254 60.2706 71.0254 56.5428V35.3819C71.0254 31.6541 75.5325 29.7872 78.1685 32.4232L98.9208 53.1755V38.7492L96.709 40.961C95.6196 42.0504 93.8534 42.0504 92.764 40.961C91.6746 39.8716 91.6746 38.1054 92.764 37.016L97.3568 32.4232C99.9928 29.7872 104.5 31.6541 104.5 35.3819V56.5428C104.5 60.2706 99.9928 62.1375 97.3568 59.5015L76.6045 38.7492Z" fill="white"/><path d="M131.169 23.2314C130.026 26.4771 128.014 29.7229 125.957 31.78C126.437 32.4429 127.169 33.9286 127.42 34.5914C127.946 34.02 128.471 33.38 128.997 32.7171V44.4657H131.649V28.58C132.449 27.0943 133.157 25.54 133.729 24.0086L131.169 23.2314ZM138.483 41.1971C137.18 41.1971 136.426 40.8543 136.426 40.0086C136.426 38.8657 137.02 37.22 146.46 26.34C146.597 26.2029 146.734 26.0429 146.803 25.9057L145.089 24.9914L144.471 25.0829H134.346V27.6429H141.843C134.14 36.9914 133.706 38.6829 133.706 40.3057C133.706 42.4314 135.169 43.8257 138.574 43.8257H143.123C145.98 43.8257 147.009 42.82 147.329 37.8371C146.574 37.7229 145.637 37.3571 144.929 36.9686C144.791 40.6029 144.449 41.1971 143.329 41.1971H138.483ZM163.854 41.2886L164.974 39.4829C162.643 38.6829 158.78 37.86 155.694 37.54L154.46 39.3C157.477 39.6429 161.18 40.4657 163.466 41.2886H152.654V34.5229C153.043 35.0714 153.454 35.8486 153.637 36.3743C154.871 36.0771 156.151 35.6886 157.386 35.2086L156.54 36.3743C158.46 36.7857 160.883 37.6086 162.231 38.2257L163.329 36.5571C162.049 35.9857 159.9 35.3229 158.094 34.9343C158.711 34.66 159.329 34.3857 159.923 34.0657C161.683 34.98 163.626 35.6657 165.614 36.0771C165.866 35.5971 166.369 34.8657 166.826 34.34V41.2886H163.854ZM157.591 26.4543C156.471 28.1457 154.62 29.7457 152.769 30.7971C153.271 31.1629 154.14 31.9629 154.551 32.3971C155.009 32.1 155.489 31.7571 155.946 31.3686C156.426 31.8257 156.974 32.26 157.569 32.6943C156.014 33.3114 154.3 33.7914 152.654 34.1114V26.4543H157.591ZM162.071 30.2029C161.409 30.7286 160.677 31.2314 159.809 31.6429C158.986 31.2314 158.277 30.7286 157.683 30.2029H162.071ZM166.826 33.9971C165.249 33.7 163.649 33.2886 162.209 32.74C163.763 31.6657 165.111 30.4314 166.026 29.0143L164.494 28.1L164.106 28.1914H159.123C159.397 27.8486 159.649 27.4829 159.877 27.14L157.934 26.4543H166.826V33.9971ZM150.049 24.0086V44.5114H152.654V43.6886H166.826V44.5114H169.569V24.0086H150.049ZM175.283 34.5C175.306 33.7229 175.306 32.9914 175.306 32.3514V31.5057H177.111V34.5H175.283ZM177.111 26.0429V29.3114H175.306V26.0429H177.111ZM179.374 23.94H172.951V32.3743C172.951 35.5971 172.86 40.0086 171.671 43.0486C172.174 43.2771 173.226 44.1229 173.614 44.58C174.529 42.4543 174.963 39.5057 175.169 36.7629H177.111V41.6086C177.111 41.8829 177.043 41.9514 176.791 41.9743C176.54 41.9743 175.877 41.9743 175.191 41.9286C175.489 42.5686 175.809 43.6429 175.877 44.2829C177.089 44.2829 177.934 44.2371 178.574 43.8029C179.214 43.4143 179.374 42.7286 179.374 41.6314V23.94ZM182.894 41.0143V38.9343C183.374 39.4143 183.946 40.0314 184.174 40.3971C185.066 39.4829 185.889 38.34 186.62 37.0829C187.306 38.0657 187.9 39.0029 188.266 39.78L189.911 38.4543V41.0143H182.894ZM182.894 32.26C183.649 33.1286 184.426 34.0886 185.157 35.0486C184.494 36.26 183.74 37.3571 182.894 38.2257V32.26ZM189.911 37.7457C189.386 36.8543 188.654 35.8257 187.831 34.7743C188.586 33.1286 189.203 31.3457 189.706 29.54L187.466 29.0143C187.146 30.3171 186.734 31.5743 186.254 32.7857C185.591 32.0086 184.929 31.2771 184.311 30.6143L182.894 31.6886V30.2486H180.38V43.5286H189.911V44.4657H192.403V30.2257H189.911V37.7457ZM188.083 26.2943C187.671 25.38 186.894 24.0543 186.3 23.0714L183.877 23.8943C184.266 24.6257 184.746 25.4943 185.111 26.2943H179.946V28.8314H192.951V26.2943H188.083ZM209.569 41.2886L210.689 39.4829C208.357 38.6829 204.494 37.86 201.409 37.54L200.174 39.3C203.191 39.6429 206.894 40.4657 209.18 41.2886H198.369V34.5229C198.757 35.0714 199.169 35.8486 199.351 36.3743C200.586 36.0771 201.866 35.6886 203.1 35.2086L202.254 36.3743C204.174 36.7857 206.597 37.6086 207.946 38.2257L209.043 36.5571C207.763 35.9857 205.614 35.3229 203.809 34.9343C204.426 34.66 205.043 34.3857 205.637 34.0657C207.397 34.98 209.34 35.6657 211.329 36.0771C211.58 35.5971 212.083 34.8657 212.54 34.34V41.2886H209.569ZM203.306 26.4543C202.186 28.1457 200.334 29.7457 198.483 30.7971C198.986 31.1629 199.854 31.9629 200.266 32.3971C200.723 32.1 201.203 31.7571 201.66 31.3686C202.14 31.8257 202.689 32.26 203.283 32.6943C201.729 33.3114 200.014 33.7914 198.369 34.1114V26.4543H203.306ZM207.786 30.2029C207.123 30.7286 206.391 31.2314 205.523 31.6429C204.7 31.2314 203.991 30.7286 203.397 30.2029H207.786ZM212.54 33.9971C210.963 33.7 209.363 33.2886 207.923 32.74C209.477 31.6657 210.826 30.4314 211.74 29.0143L210.209 28.1L209.82 28.1914H204.837C205.111 27.8486 205.363 27.4829 205.591 27.14L203.649 26.4543H212.54V33.9971ZM195.763 24.0086V44.5114H198.369V43.6886H212.54V44.5114H215.283V24.0086H195.763ZM127.58 69.5H130.62V62.4371C130.62 60.8371 130.346 58.4829 130.186 56.8829H130.277L131.626 60.86L134.254 67.9686H136.197L138.803 60.86L140.174 56.8829H140.289C140.106 58.4829 139.854 60.8371 139.854 62.4371V69.5H142.94V52.5629H139.191L136.38 60.4943C136.014 61.5457 135.717 62.6657 135.351 63.74H135.237C134.894 62.6657 134.574 61.5457 134.209 60.4943L131.329 52.5629H127.58V69.5ZM146.815 69.5H150.175V56.7H146.815V69.5ZM148.506 54.6429C149.649 54.6429 150.449 53.9114 150.449 52.7914C150.449 51.6943 149.649 50.9629 148.506 50.9629C147.34 50.9629 146.54 51.6943 146.54 52.7914C146.54 53.9114 147.34 54.6429 148.506 54.6429ZM153.757 69.5H157.117V60.7C158.054 59.7629 158.717 59.26 159.768 59.26C161.025 59.26 161.574 59.9457 161.574 61.9343V69.5H164.934V61.5229C164.934 58.3 163.745 56.38 160.979 56.38C159.242 56.38 157.939 57.2943 156.819 58.3914H156.751L156.499 56.7H153.757V69.5ZM172.902 69.82C174.228 69.82 175.508 69.0886 176.445 68.1743H176.537L176.788 69.5H179.508V51.26H176.171V55.7629L176.285 57.7743C175.371 56.9286 174.479 56.38 173.039 56.38C170.274 56.38 167.668 58.94 167.668 63.1C167.668 67.3057 169.725 69.82 172.902 69.82ZM173.771 67.0543C172.079 67.0543 171.119 65.7286 171.119 63.0771C171.119 60.5171 172.331 59.1457 173.771 59.1457C174.571 59.1457 175.394 59.3971 176.171 60.1057V65.7286C175.417 66.6886 174.662 67.0543 173.771 67.0543ZM183.384 69.5H186.424V62.4371C186.424 60.8371 186.149 58.4829 185.989 56.8829H186.081L187.429 60.86L190.058 67.9686H192.001L194.606 60.86L195.978 56.8829H196.092C195.909 58.4829 195.658 60.8371 195.658 62.4371V69.5H198.744V52.5629H194.995L192.184 60.4943C191.818 61.5457 191.521 62.6657 191.155 63.74H191.041C190.698 62.6657 190.378 61.5457 190.012 60.4943L187.132 52.5629H183.384V69.5ZM205.772 69.82C207.235 69.82 208.515 69.0886 209.635 68.1286H209.727L209.955 69.5H212.698V62.0257C212.698 58.3229 211.03 56.38 207.784 56.38C205.772 56.38 203.944 57.1343 202.435 58.0714L203.647 60.2886C204.835 59.6029 205.978 59.0771 207.167 59.0771C208.744 59.0771 209.292 60.0371 209.361 61.2943C204.195 61.8429 201.978 63.2829 201.978 66.0257C201.978 68.1971 203.487 69.82 205.772 69.82ZM206.87 67.1914C205.887 67.1914 205.178 66.7571 205.178 65.7514C205.178 64.6086 206.23 63.74 209.361 63.3514V65.9343C208.538 66.7343 207.83 67.1914 206.87 67.1914ZM219.78 69.82C223.117 69.82 224.877 68.0143 224.877 65.7743C224.877 63.3971 223.003 62.5514 221.311 61.9114C219.963 61.4086 218.774 61.0657 218.774 60.1286C218.774 59.3971 219.323 58.8943 220.488 58.8943C221.426 58.8943 222.317 59.3286 223.231 59.9914L224.74 57.9571C223.688 57.1571 222.248 56.38 220.397 56.38C217.471 56.38 215.62 58.0029 215.62 60.2886C215.62 62.4371 217.426 63.42 219.048 64.0371C220.397 64.5629 221.723 64.9971 221.723 65.9571C221.723 66.7571 221.151 67.3057 219.871 67.3057C218.683 67.3057 217.586 66.8029 216.443 65.9114L214.911 68.0143C216.191 69.0657 218.066 69.82 219.78 69.82ZM231.59 69.82C232.71 69.82 233.601 69.5686 234.287 69.34L233.738 66.8943C233.395 67.0314 232.892 67.1686 232.481 67.1686C231.338 67.1686 230.744 66.4829 230.744 65.02V59.3514H233.898V56.7H230.744V53.2486H227.955L227.567 56.7L225.578 56.86V59.3514H227.384V65.02C227.384 67.8771 228.55 69.82 231.59 69.82ZM241.655 69.82C243.232 69.82 244.855 69.2714 246.112 68.4029L244.969 66.3457C244.055 66.9171 243.141 67.2371 242.089 67.2371C240.192 67.2371 238.821 66.14 238.547 64.0371H246.432C246.524 63.74 246.592 63.1229 246.592 62.4829C246.592 58.9629 244.764 56.38 241.244 56.38C238.204 56.38 235.278 58.9629 235.278 63.1C235.278 67.3286 238.067 69.82 241.655 69.82ZM238.501 61.7971C238.752 59.9457 239.941 58.9857 241.289 58.9857C242.935 58.9857 243.712 60.0829 243.712 61.7971H238.501ZM249.359 69.5H252.719V61.8657C253.428 60.0143 254.639 59.3514 255.645 59.3514C256.171 59.3514 256.536 59.42 256.994 59.5571L257.565 56.6543C257.176 56.4943 256.765 56.38 256.056 56.38C254.731 56.38 253.359 57.2943 252.422 58.9629H252.354L252.102 56.7H249.359V69.5Z" fill="white"/><defs><linearGradient x2="-10.2643" x1="48" gradientUnits="userSpaceOnUse" y2="-2.76465" id="paint1_linear" y1="60.2544"><stop stop-color="#008899"/><stop offset="1" stop-color="#66FF66"/></linearGradient><clipPath id="clip2"><rect height="48" width="48" fill="white" transform="translate(63 22)"/></clipPath><clipPath id="clip3"><rect y="22" height="48" x="63" width="48" fill="white" rx="10.9515"/></clipPath></defs></g></svg></svg>