<svg ed:hSpacing="30" ed:vSpacing="30" ed:name="页面-1" height="575" xmlns="http://www.w3.org/2000/svg" viewBox="0 0 1952 575" width="1952" xmlns:xlink="http://www.w3.org/1999/xlink" xmlns:ev="http://www.w3.org/2001/xml-events" xmlns:ed="https://www.edrawsoft.cn/xml/2017/SVGExtensions/" id="page300000100"><style type="text/css"><![CDATA[
g[ed\:togtopicid],g[ed\:hyperlink],g[ed\:comment],g[ed\:note] {cursor:pointer;}
g[id] {-moz-user-select: none;-ms-user-select: none;user-select: none;}
svg text::selection,svg tspan::selection{background-color: #4285f4;color: #ffffff;fill: #ffffff;}
.st2 {fill:#000000;font-family:Consolas;font-size:16pt}
.st1 {fill:#ffffff;font-family:Consolas;font-size:16pt;font-weight:bold}
]]></style><defs/><rect y="0" height="575" x="0" width="1952" fill="#ffffff"/><path ed:parentid="101" d="M-4.9,68.4L-36.4,68.4L-36.4,-68.4L-67.9,-68.4" ed:tosuperid="102" stroke-linejoin="round" stroke-linecap="round" stroke="#9ec842" fill="none" id="103" stroke-width="3" transform="matrix(1,0,0,1,1034.88,258.29)"/><path ed:parentid="102" d="M13.5,20.1L0,20.1L0,-20.1L-13.5,-20.1" ed:tosuperid="110" stroke-linejoin="round" stroke-linecap="round" stroke="#9ec842" fill="none" id="111" stroke-width="3" transform="matrix(1,0,0,1,697.5,169.85)"/><path ed:parentid="102" d="M0,0L-13.5,0" ed:tosuperid="112" stroke-linejoin="round" stroke-linecap="round" stroke="#9ec842" fill="none" id="113" stroke-width="3" transform="matrix(1,0,0,1,697.5,189.9)"/><path ed:parentid="102" d="M0,-20.1L0,20L-13.5,20" ed:tosuperid="114" stroke-linejoin="round" stroke-linecap="round" stroke="#9ec842" fill="none" id="115" stroke-width="3" transform="matrix(1,0,0,1,697.5,209.95)"/><path ed:parentid="101" d="M-4.9,5L-36.4,5L-36.4,-5L-67.9,-5" ed:tosuperid="116" stroke-linejoin="round" stroke-linecap="round" stroke="#f55151" fill="none" id="117" stroke-width="3" transform="matrix(1,0,0,1,1034.88,321.66)"/><path ed:parentid="101" d="M-4.9,-68.4L-36.4,-68.4L-36.4,68.4L-67.9,68.4" ed:tosuperid="118" stroke-linejoin="round" stroke-linecap="round" stroke="#f5c759" fill="none" id="119" stroke-width="3" transform="matrix(1,0,0,1,1034.88,395.06)"/><path ed:parentid="101" d="M4.9,51.2L36.4,51.2L36.4,-51.2L67.9,-51.2" ed:tosuperid="120" stroke-linejoin="round" stroke-linecap="round" stroke="#ff7869" fill="none" id="121" stroke-width="3" transform="matrix(1,0,0,1,1170.63,275.49)"/><path ed:parentid="101" d="M4.9,-51.2L36.4,-51.2L36.4,51.2L67.9,51.2" ed:tosuperid="122" stroke-linejoin="round" stroke-linecap="round" stroke="#63dcd2" fill="none" id="123" stroke-width="3" transform="matrix(1,0,0,1,1170.63,377.86)"/><path ed:parentid="101" d="M4.9,5.4L36.4,5.4L36.4,-5.4L67.9,-5.4" ed:tosuperid="126" stroke-linejoin="round" stroke-linecap="round" stroke="#488df5" fill="none" id="127" stroke-width="3" transform="matrix(1,0,0,1,1170.63,321.31)"/><path ed:parentid="116" d="M13.5,0L0,0L-13.5,0" ed:tosuperid="130" stroke-linejoin="round" stroke-linecap="round" stroke="#f55151" fill="none" id="131" stroke-width="3" transform="matrix(1,0,0,1,769.5,316.65)"/><path ed:parentid="130" d="M13.5,10L0,10L0,-10L-13.5,-10" ed:tosuperid="132" stroke-linejoin="round" stroke-linecap="round" stroke="#f55151" fill="none" id="133" stroke-width="3" transform="matrix(1,0,0,1,479.5,306.62)"/><path ed:parentid="130" d="M0,-10L0,10L-13.5,10" ed:tosuperid="134" stroke-linejoin="round" stroke-linecap="round" stroke="#f55151" fill="none" id="135" stroke-width="3" transform="matrix(1,0,0,1,479.5,326.67)"/><path ed:parentid="139" d="M13.5,10L0,10L0,-10L-13.5,-10" ed:tosuperid="138" stroke-linejoin="round" stroke-linecap="round" stroke="#f5c759" fill="none" id="141" stroke-width="3" transform="matrix(1,0,0,1,551.5,413.32)"/><path ed:parentid="118" d="M0,-20L0,20L-13.5,20" ed:tosuperid="140" stroke-linejoin="round" stroke-linecap="round" stroke="#f5c759" fill="none" id="142" stroke-width="3" transform="matrix(1,0,0,1,769.5,483.5)"/><path ed:parentid="118" d="M13.5,20.1L0,20.1L0,-20.1L-13.5,-20.1" ed:tosuperid="139" stroke-linejoin="round" stroke-linecap="round" stroke="#f5c759" fill="none" id="143" stroke-width="3" transform="matrix(1,0,0,1,769.5,443.4)"/><path ed:parentid="139" d="M0,-10L0,10L-13.5,10" ed:tosuperid="146" stroke-linejoin="round" stroke-linecap="round" stroke="#f5c759" fill="none" id="147" stroke-width="3" transform="matrix(1,0,0,1,551.5,433.37)"/><path ed:parentid="140" d="M0,-10L0,10L-13.5,10" ed:tosuperid="149" stroke-linejoin="round" stroke-linecap="round" stroke="#f5c759" fill="none" id="150" stroke-width="3" transform="matrix(1,0,0,1,227.5,513.58)"/><path ed:parentid="140" d="M13.5,10L0,10L0,-10L-13.5,-10" ed:tosuperid="148" stroke-linejoin="round" stroke-linecap="round" stroke="#f5c759" fill="none" id="151" stroke-width="3" transform="matrix(1,0,0,1,227.5,493.53)"/><path ed:parentid="120" d="M-13.5,0L0,0L13.5,0" ed:tosuperid="154" stroke-linejoin="round" stroke-linecap="round" stroke="#ff7869" fill="none" id="165" stroke-width="3" transform="matrix(1,0,0,1,1460.01,224.3)"/><path ed:parentid="126" d="M0,-10L0,10L13.5,10" ed:tosuperid="167" stroke-linejoin="round" stroke-linecap="round" stroke="#488df5" fill="none" id="172" stroke-width="3" transform="matrix(1,0,0,1,1448.01,325.97)"/><path ed:parentid="126" d="M-13.5,10L0,10L0,-10L13.5,-10" ed:tosuperid="166" stroke-linejoin="round" stroke-linecap="round" stroke="#488df5" fill="none" id="173" stroke-width="3" transform="matrix(1,0,0,1,1448.01,305.92)"/><path ed:parentid="122" d="M0,-13.2L0,13.2L13.5,13.2" ed:tosuperid="177" stroke-linejoin="round" stroke-linecap="round" stroke="#63dcd2" fill="none" id="182" stroke-width="3" transform="matrix(1,0,0,1,1448.01,442.27)"/><path ed:parentid="122" d="M-13.5,13.2L0,13.2L0,-13.2L13.5,-13.2" ed:tosuperid="176" stroke-linejoin="round" stroke-linecap="round" stroke="#63dcd2" fill="none" id="183" stroke-width="3" transform="matrix(1,0,0,1,1448.01,415.82)"/><g ed:width="145.512" ed:layout="map" ed:topictype="mainidea" ed:height="56.59999999999999" id="101" transform="matrix(1,0,0,1,1030,298.38)"><path d="M28.3,0L117.2,0C132.8,0,145.5,12.7,145.5,28.3C145.5,43.9,132.8,56.6,117.2,56.6L28.3,56.6C12.7,56.6,0,43.9,0,28.3C0,12.7,12.7,0,28.3,0z" stroke-linejoin="round" stroke="#3b71c8" fill="#3b71c8" stroke-width="2"/><text class="st1"><tspan y="34.9" style="white-space:pre" x="24" textLength="96">our work</tspan></text></g><g ed:parentid="101" ed:width="256" ed:layout="leftmap" ed:height="43.6" id="102" transform="matrix(1,0,0,1,711,168.1)"><path d="M4,0L252,0C254.7,0,256,1.3,256,4L256,39.6C256,42.3,254.7,43.6,252,43.6L4,43.6C1.3,43.6,0,42.3,0,39.6L0,4C0,1.3,1.3,0,4,0z" stroke-linejoin="round" stroke="#9ec842" fill="none" stroke-width="3"/><text class="st2"><tspan y="28.4" style="white-space:pre" x="15.84 27.84 39.84 51.84 63.84 75.84 87.84 99.84 111.84 123.84 135.84 147.84 159.84 171.84 183.84 195.84 207.84 219.84 " textLength="216">Data Preprocessing</tspan></text></g><g ed:parentid="102" ed:width="395" ed:layout="leftmap" ed:height="33.6" id="110" transform="matrix(1,0,0,1,289,133)"><path d="M4,0L391,0C393.7,0,395,1.3,395,4L395,29.6C395,32.3,393.7,33.6,391,33.6L4,33.6C1.3,33.6,0,32.3,0,29.6L0,4C0,1.3,1.3,0,4,0z" stroke-linejoin="round" stroke="#9ec842" fill="none" stroke-width="3"/><text class="st2"><tspan y="23.4" style="white-space:pre" x="8.64 20.64 32.64 44.64 56.64 68.64 80.64 92.64 104.64 116.64 128.64 140.64 152.64 164.64 176.64 188.64 200.64 212.64 224.64 236.64 248.64 260.64 272.64 284.64 296.64 308.64 320.64 332.64 344.64 356.64 368.64 " textLength="372">Visualization of Missing Values</tspan></text></g><g ed:parentid="102" ed:width="467" ed:layout="leftmap" ed:height="33.6" id="112" transform="matrix(1,0,0,1,217,173.1)"><path d="M4,0L463,0C465.7,0,467,1.3,467,4L467,29.6C467,32.3,465.7,33.6,463,33.6L4,33.6C1.3,33.6,0,32.3,0,29.6L0,4C0,1.3,1.3,0,4,0z" stroke-linejoin="round" stroke="#9ec842" fill="none" stroke-width="3"/><text class="st2"><tspan y="23.4" style="white-space:pre" x="8.64 20.64 32.64 44.64 56.64 68.64 80.64 92.64 104.64 116.64 128.64 140.64 152.64 164.64 176.64 188.64 200.64 212.64 224.64 236.64 248.64 260.64 272.64 284.64 296.64 308.64 320.64 332.64 344.64 356.64 368.64 380.64 392.64 404.64 416.64 428.64 440.64 " textLength="444">Random Forests Fill in Missing Values</tspan></text></g><g ed:parentid="102" ed:width="275" ed:layout="leftmap" ed:height="33.6" id="114" transform="matrix(1,0,0,1,409,213.2)"><path d="M4,0L271,0C273.7,0,275,1.3,275,4L275,29.6C275,32.3,273.7,33.6,271,33.6L4,33.6C1.3,33.6,0,32.3,0,29.6L0,4C0,1.3,1.3,0,4,0z" stroke-linejoin="round" stroke="#9ec842" fill="none" stroke-width="3"/><text class="st2"><tspan y="23.4" style="white-space:pre" x="8.64 20.64 32.64 44.64 56.64 68.64 80.64 92.64 104.64 116.64 128.64 140.64 152.64 164.64 176.64 188.64 200.64 212.64 224.64 236.64 248.64 " textLength="252">Split Data by COLPROT</tspan></text></g><g ed:parentid="101" ed:width="184" ed:layout="leftmap" ed:height="43.6" id="116" transform="matrix(1,0,0,1,783,294.85)"><path d="M4,0L180,0C182.7,0,184,1.3,184,4L184,39.6C184,42.3,182.7,43.6,180,43.6L4,43.6C1.3,43.6,0,42.3,0,39.6L0,4C0,1.3,1.3,0,4,0z" stroke-linejoin="round" stroke="#f55151" fill="none" stroke-width="3"/><text class="st2"><tspan y="28.4" style="white-space:pre" x="15.84 27.84 39.84 51.84 63.84 75.84 87.84 99.84 111.84 123.84 135.84 147.84 " textLength="144">Question One</tspan></text></g><g ed:parentid="101" ed:width="184" ed:layout="leftmap" ed:height="43.6" id="118" transform="matrix(1,0,0,1,783,441.65)"><path d="M4,0L180,0C182.7,0,184,1.3,184,4L184,39.6C184,42.3,182.7,43.6,180,43.6L4,43.6C1.3,43.6,0,42.3,0,39.6L0,4C0,1.3,1.3,0,4,0z" stroke-linejoin="round" stroke="#f5c759" fill="none" stroke-width="3"/><text class="st2"><tspan y="28.4" style="white-space:pre" x="19" textLength="144">Question Two</tspan></text></g><g ed:parentid="101" ed:width="208" ed:layout="rightmap" ed:height="43.6" id="120" transform="matrix(1,0,0,1,1238.51,202.5)"><path d="M4,0L204,0C206.7,0,208,1.3,208,4L208,39.6C208,42.3,206.7,43.6,204,43.6L4,43.6C1.3,43.6,0,42.3,0,39.6L0,4C0,1.3,1.3,0,4,0z" stroke-linejoin="round" stroke="#ff7869" fill="none" stroke-width="3"/><text class="st2"><tspan y="28.4" style="white-space:pre" x="19" textLength="168">Question Three</tspan></text></g><g ed:parentid="101" ed:width="196" ed:layout="rightmap" ed:height="43.6" id="122" transform="matrix(1,0,0,1,1238.51,407.25)"><path d="M4,0L192,0C194.7,0,196,1.3,196,4L196,39.6C196,42.3,194.7,43.6,192,43.6L4,43.6C1.3,43.6,0,42.3,0,39.6L0,4C0,1.3,1.3,0,4,0z" stroke-linejoin="round" stroke="#63dcd2" fill="none" stroke-width="3"/><text class="st2"><tspan y="28.4" style="white-space:pre" x="19" textLength="156">Question Five</tspan></text></g><g ed:parentid="101" ed:width="196" ed:layout="rightmap" ed:height="43.6" id="126" transform="matrix(1,0,0,1,1238.51,294.15)"><path d="M4,0L192,0C194.7,0,196,1.3,196,4L196,39.6C196,42.3,194.7,43.6,192,43.6L4,43.6C1.3,43.6,0,42.3,0,39.6L0,4C0,1.3,1.3,0,4,0z" stroke-linejoin="round" stroke="#488df5" fill="none" stroke-width="3"/><text class="st2"><tspan y="28.4" style="white-space:pre" x="19" textLength="156">Question Four</tspan></text></g><g ed:parentid="116" ed:width="263" ed:layout="leftmap" ed:height="33.6" id="130" transform="matrix(1,0,0,1,493,299.85)"><path d="M4,0L259,0C261.7,0,263,1.3,263,4L263,29.6C263,32.3,261.7,33.6,259,33.6L4,33.6C1.3,33.6,0,32.3,0,29.6L0,4C0,1.3,1.3,0,4,0z" stroke-linejoin="round" stroke="#f55151" fill="none" stroke-width="3"/><text class="st2"><tspan y="23.4" style="white-space:pre" x="8.64 20.64 32.64 44.64 56.64 68.64 80.64 92.64 104.64 116.64 128.64 140.64 152.64 164.64 176.64 188.64 200.64 212.64 224.64 236.64 " textLength="240">Correlation Analysis</tspan></text></g><g ed:parentid="130" ed:width="419" ed:layout="leftmap" ed:height="33.6" id="132" transform="matrix(1,0,0,1,47,279.8)"><path d="M4,0L415,0C417.7,0,419,1.3,419,4L419,29.6C419,32.3,417.7,33.6,415,33.6L4,33.6C1.3,33.6,0,32.3,0,29.6L0,4C0,1.3,1.3,0,4,0z" stroke-linejoin="round" stroke="#f55151" fill="none" stroke-width="3"/><text class="st2"><tspan y="23.4" style="white-space:pre" x="8.64 20.64 32.64 44.64 56.64 68.64 80.64 92.64 104.64 116.64 128.64 140.64 152.64 164.64 176.64 188.64 200.64 212.64 224.64 236.64 248.64 260.64 272.64 284.64 296.64 308.64 320.64 332.64 344.64 356.64 368.64 380.64 392.64 " textLength="396">Pearson's Correlation Coefficient</tspan></text></g><g ed:parentid="130" ed:width="179" ed:layout="leftmap" ed:height="33.6" id="134" transform="matrix(1,0,0,1,287,319.9)"><path d="M4,0L175,0C177.7,0,179,1.3,179,4L179,29.6C179,32.3,177.7,33.6,175,33.6L4,33.6C1.3,33.6,0,32.3,0,29.6L0,4C0,1.3,1.3,0,4,0z" stroke-linejoin="round" stroke="#f55151" fill="none" stroke-width="3"/><text class="st2"><tspan y="23.4" style="white-space:pre" x="8.64 20.64 32.64 44.64 56.64 68.64 80.64 92.64 104.64 116.64 128.64 140.64 152.64 " textLength="156">One-way ANOVA</tspan></text></g><g ed:parentid="139" ed:width="359" ed:layout="leftmap" ed:height="33.6" id="138" transform="matrix(1,0,0,1,179,386.5)"><path d="M4,0L355,0C357.7,0,359,1.3,359,4L359,29.6C359,32.3,357.7,33.6,355,33.6L4,33.6C1.3,33.6,0,32.3,0,29.6L0,4C0,1.3,1.3,0,4,0z" stroke-linejoin="round" stroke="#f5c759" fill="none" stroke-width="3"/><text class="st2"><tspan y="23.4" style="white-space:pre" x="8.64 20.64 32.64 44.64 56.64 68.64 80.64 92.64 104.64 116.64 128.64 140.64 152.64 164.64 176.64 188.64 200.64 212.64 224.64 236.64 248.64 260.64 272.64 284.64 296.64 308.64 320.64 332.64 " textLength="336">Structural Features of Brain</tspan></text></g><g ed:parentid="118" ed:width="191" ed:layout="leftmap" ed:height="33.6" id="139" transform="matrix(1,0,0,1,565,406.55)"><path d="M4,0L187,0C189.7,0,191,1.3,191,4L191,29.6C191,32.3,189.7,33.6,187,33.6L4,33.6C1.3,33.6,0,32.3,0,29.6L0,4C0,1.3,1.3,0,4,0z" stroke-linejoin="round" stroke="#f5c759" fill="none" stroke-width="3"/><text class="st2"><tspan y="23.4" style="white-space:pre" x="8.64 20.64 32.64 44.64 56.64 68.64 80.64 92.64 104.64 116.64 128.64 140.64 152.64 164.64 " textLength="168">Data Reduction</tspan></text></g><g ed:parentid="118" ed:width="515" ed:layout="leftmap" ed:height="33.6" id="140" transform="matrix(1,0,0,1,241,486.75)"><path d="M4,0L511,0C513.7,0,515,1.3,515,4L515,29.6C515,32.3,513.7,33.6,511,33.6L4,33.6C1.3,33.6,0,32.3,0,29.6L0,4C0,1.3,1.3,0,4,0z" stroke-linejoin="round" stroke="#f5c759" fill="none" stroke-width="3"/><text class="st2"><tspan y="23.4" style="white-space:pre" x="8.64 20.64 32.64 44.64 56.64 68.64 80.64 92.64 104.64 116.64 128.64 140.64 152.64 164.64 176.64 188.64 200.64 212.64 224.64 236.64 248.64 260.64 272.64 284.64 296.64 308.64 320.64 332.64 344.64 356.64 368.64 380.64 392.64 404.64 416.64 428.64 440.64 452.64 464.64 476.64 488.64 " textLength="492">Alzheimer's Disease Intelligent Diagnosis</tspan></text></g><g ed:parentid="139" ed:width="455" ed:layout="leftmap" ed:height="33.6" id="146" transform="matrix(1,0,0,1,83,426.6)"><path d="M4,0L451,0C453.7,0,455,1.3,455,4L455,29.6C455,32.3,453.7,33.6,451,33.6L4,33.6C1.3,33.6,0,32.3,0,29.6L0,4C0,1.3,1.3,0,4,0z" stroke-linejoin="round" stroke="#f5c759" fill="none" stroke-width="3"/><text class="st2"><tspan y="23.4" style="white-space:pre" x="8.64 20.64 32.64 44.64 56.64 68.64 80.64 92.64 104.64 116.64 128.64 140.64 152.64 164.64 176.64 188.64 200.64 212.64 224.64 236.64 248.64 260.64 272.64 284.64 296.64 308.64 320.64 332.64 344.64 356.64 368.64 380.64 392.64 404.64 416.64 428.64 " textLength="432">Cognitive Behavioral Characteristics</tspan></text></g><g ed:parentid="140" ed:width="131" ed:layout="leftmap" ed:height="33.6" id="148" transform="matrix(1,0,0,1,83,466.7)"><path d="M4,0L127,0C129.7,0,131,1.3,131,4L131,29.6C131,32.3,129.7,33.6,127,33.6L4,33.6C1.3,33.6,0,32.3,0,29.6L0,4C0,1.3,1.3,0,4,0z" stroke-linejoin="round" stroke="#f5c759" fill="none" stroke-width="3"/><text class="st2"><tspan y="23.4" style="white-space:pre" x="8.64 20.64 32.64 44.64 56.64 68.64 80.64 92.64 104.64 " textLength="108">SWM Model</tspan></text></g><g ed:parentid="140" ed:width="191" ed:layout="leftmap" ed:height="33.6" id="149" transform="matrix(1,0,0,1,23,506.8)"><path d="M4,0L187,0C189.7,0,191,1.3,191,4L191,29.6C191,32.3,189.7,33.6,187,33.6L4,33.6C1.3,33.6,0,32.3,0,29.6L0,4C0,1.3,1.3,0,4,0z" stroke-linejoin="round" stroke="#f5c759" fill="none" stroke-width="3"/><text class="st2"><tspan y="23.4" style="white-space:pre" x="8.64 20.64 32.64 44.64 56.64 68.64 80.64 92.64 104.64 116.64 128.64 140.64 152.64 164.64 " textLength="168">SWM Prediction</tspan></text></g><g ed:parentid="120" ed:width="299" ed:layout="rightmap" ed:height="33.6" id="154" transform="matrix(1,0,0,1,1473.51,207.5)"><path d="M4,0L295,0C297.7,0,299,1.3,299,4L299,29.6C299,32.3,297.7,33.6,295,33.6L4,33.6C1.3,33.6,0,32.3,0,29.6L0,4C0,1.3,1.3,0,4,0z" stroke-linejoin="round" stroke="#ff7869" fill="none" stroke-width="3"/><text class="st2"><tspan y="23.4" style="white-space:pre" x="8.64 20.64 32.64 44.64 56.64 68.64 80.64 92.64 104.64 116.64 128.64 140.64 152.64 164.64 176.64 188.64 200.64 212.64 224.64 236.64 248.64 260.64 272.64 " textLength="276">Hierarchical Clustering</tspan></text></g><g ed:parentid="126" ed:width="467" ed:layout="rightmap" ed:height="33.6" id="166" transform="matrix(1,0,0,1,1461.51,279.1)"><path d="M4,0L463,0C465.7,0,467,1.3,467,4L467,29.6C467,32.3,465.7,33.6,463,33.6L4,33.6C1.3,33.6,0,32.3,0,29.6L0,4C0,1.3,1.3,0,4,0z" stroke-linejoin="round" stroke="#488df5" fill="none" stroke-width="3"/><text class="st2"><tspan y="23.4" style="white-space:pre" x="8.64 20.64 32.64 44.64 56.64 68.64 80.64 92.64 104.64 116.64 128.64 140.64 152.64 164.64 176.64 188.64 200.64 212.64 224.64 236.64 248.64 260.64 272.64 284.64 296.64 308.64 320.64 332.64 344.64 356.64 368.64 380.64 392.64 404.64 416.64 428.64 440.64 " textLength="444">Quantifying Alzheimer's Disease Model</tspan></text></g><g ed:parentid="126" ed:width="263" ed:layout="rightmap" ed:height="33.6" id="167" transform="matrix(1,0,0,1,1461.51,319.2)"><path d="M4,0L259,0C261.7,0,263,1.3,263,4L263,29.6C263,32.3,261.7,33.6,259,33.6L4,33.6C1.3,33.6,0,32.3,0,29.6L0,4C0,1.3,1.3,0,4,0z" stroke-linejoin="round" stroke="#488df5" fill="none" stroke-width="3"/><text class="st2"><tspan y="23.4" style="white-space:pre" x="8.64 20.64 32.64 44.64 56.64 68.64 80.64 92.64 104.64 116.64 128.64 140.64 152.64 164.64 176.64 188.64 200.64 212.64 224.64 236.64 " textLength="240">Time Evolving Pttern</tspan></text></g><g ed:parentid="122" ed:width="239" ed:layout="rightmap" ed:height="33.6" id="176" transform="matrix(1,0,0,1,1461.51,385.8)"><path d="M4,0L235,0C237.7,0,239,1.3,239,4L239,29.6C239,32.3,237.7,33.6,235,33.6L4,33.6C1.3,33.6,0,32.3,0,29.6L0,4C0,1.3,1.3,0,4,0z" stroke-linejoin="round" stroke="#63dcd2" fill="none" stroke-width="3"/><text class="st2"><tspan y="23.4" style="white-space:pre" x="8.64 20.64 32.64 44.64 56.64 68.64 80.64 92.64 104.64 116.64 128.64 140.64 152.64 164.64 176.64 188.64 200.64 212.64 " textLength="216">Consult Literature</tspan></text></g><g ed:parentid="122" ed:width="443" ed:layout="rightmap" ed:height="59.2" id="177" transform="matrix(1,0,0,1,1461.51,425.9)"><path d="M4,0L439,0C441.7,0,443,1.3,443,4L443,55.2C443,57.9,441.7,59.2,439,59.2L4,59.2C1.3,59.2,0,57.9,0,55.2L0,4C0,1.3,1.3,0,4,0z" stroke-linejoin="round" stroke="#63dcd2" fill="none" stroke-width="3"/><text class="st2"><tspan y="23.4" style="white-space:pre" x="8.64 20.64 32.64 44.64 56.64 68.64 80.64 92.64 104.64 116.64 128.64 140.64 152.64 164.64 176.64 188.64 200.64 212.64 224.64 236.64 248.64 260.64 272.64 284.64 296.64 308.64 320.64 332.64 344.64 356.64 368.64 380.64 392.64 404.64 416.64 " textLength="420">Describe the Early Intervention and</tspan><tspan y="49" style="white-space:pre" x="10" textLength="240">Diagnostic Criteria </tspan></text></g></svg>